<?xml version="1.0" encoding="UTF-8" standalone="no"?><!DOCTYPE svg PUBLIC "-//W3C//DTD SVG 1.1//EN" "http://www.w3.org/Graphics/SVG/1.1/DTD/svg11.dtd"><svg width="100%" height="100%" viewBox="0 0 123 123" version="1.1" xmlns="http://www.w3.org/2000/svg" xmlns:xlink="http://www.w3.org/1999/xlink" xml:space="preserve" xmlns:serif="http://www.serif.com/" style="fill-rule:evenodd;clip-rule:evenodd;stroke-linejoin:round;stroke-miterlimit:2;"><g id="Layer-1" serif:id="Layer 1"><path d="M77.771,7.922c-0,-4.372 -3.55,-7.922 -7.922,-7.922l-52.825,0c-4.372,0 -7.922,3.55 -7.922,7.922l0,84.681c0,4.372 3.55,7.922 7.922,7.922l52.825,0c4.372,0 7.922,-3.55 7.922,-7.922l-0,-84.681Z" style="fill:url(#_Linear1);"/><path d="M77.771,7.922c-0,-4.372 -3.55,-7.922 -7.922,-7.922l-52.825,0c-4.372,0 -7.922,3.55 -7.922,7.922l0,84.681c0,4.372 3.55,7.922 7.922,7.922l52.825,0c4.372,0 7.922,-3.55 7.922,-7.922l-0,-84.681Zm-4,-0l-0,84.681c-0,2.165 -1.758,3.922 -3.922,3.922c-0,0 -52.825,0 -52.825,0c-2.164,0 -3.922,-1.757 -3.922,-3.922c0,0 0,-84.681 0,-84.681c0,-2.165 1.758,-3.922 3.922,-3.922l52.825,0c2.164,0 3.922,1.757 3.922,3.922Z" style="fill:#90c208;"/><path d="M46.349,81.285l-9.199,0l-0,-8.991l9.199,0l0,8.991Zm17.813,-48.534c0,2.784 -0.526,5.262 -1.578,7.435c-1.052,2.174 -2.435,4.098 -4.149,5.774c-1.683,1.62 -3.623,3.139 -5.817,4.56c-2.195,1.42 -4.525,2.798 -6.99,4.133l-0,9.588l-8.073,-0l0,-12.997c1.955,-1.051 4.067,-2.201 6.337,-3.451c2.269,-1.25 4.126,-2.514 5.569,-3.793c1.744,-1.477 3.097,-3.004 4.059,-4.581c0.962,-1.576 1.443,-3.586 1.443,-6.029c-0,-3.21 -1.15,-5.604 -3.45,-7.18c-2.3,-1.577 -5.269,-2.365 -8.907,-2.365c-3.247,-0 -6.321,0.483 -9.222,1.449c-2.901,0.966 -5.194,1.946 -6.877,2.94l-0.451,-0l-0,-8.693c2.104,-0.767 4.773,-1.456 8.005,-2.067c3.231,-0.61 6.29,-0.916 9.177,-0.916c6.463,0 11.567,1.485 15.31,4.453c3.743,2.969 5.614,6.882 5.614,11.74Z" style="fill:#fff;fill-rule:nonzero;"/><path d="M113.778,30.277c-0,-4.372 -3.55,-7.922 -7.922,-7.922l-52.825,-0c-4.372,-0 -7.922,3.55 -7.922,7.922l0,84.681c0,4.372 3.55,7.922 7.922,7.922l52.825,0c4.372,0 7.922,-3.55 7.922,-7.922l-0,-84.681Z" style="fill:url(#_Linear2);"/><path d="M113.778,30.277c-0,-4.372 -3.55,-7.922 -7.922,-7.922l-52.825,-0c-4.372,-0 -7.922,3.55 -7.922,7.922l0,84.681c0,4.372 3.55,7.922 7.922,7.922l52.825,-0c4.372,-0 7.922,-3.55 7.922,-7.922l-0,-84.681Zm-4,-0l-0,84.681c-0,2.165 -1.758,3.922 -3.922,3.922l-52.825,0c-2.164,0 -3.922,-1.757 -3.922,-3.922l0,-84.681c0,-2.165 1.758,-3.922 3.922,-3.922l52.825,-0c2.164,-0 3.922,1.757 3.922,3.922Z" style="fill:#73a1f3;"/><path d="M81.733,102.795l-9.199,0l-0,-8.991l9.199,0l0,8.991Zm17.814,-48.535c-0,2.784 -0.527,5.263 -1.579,7.436c-1.052,2.173 -2.435,4.098 -4.149,5.774c-1.683,1.619 -3.622,3.139 -5.817,4.56c-2.195,1.42 -4.525,2.798 -6.99,4.133l-0,9.588l-8.072,-0l-0,-12.997c1.954,-1.051 4.066,-2.202 6.336,-3.452c2.27,-1.25 4.126,-2.514 5.569,-3.792c1.744,-1.477 3.097,-3.004 4.059,-4.581c0.962,-1.576 1.443,-3.586 1.443,-6.029c-0,-3.21 -1.15,-5.604 -3.45,-7.18c-2.3,-1.577 -5.269,-2.365 -8.907,-2.365c-3.247,-0 -6.321,0.483 -9.222,1.448c-2.901,0.966 -5.193,1.946 -6.877,2.941l-0.451,-0l-0,-8.693c2.105,-0.767 4.773,-1.456 8.005,-2.067c3.232,-0.611 6.291,-0.916 9.177,-0.916c6.464,0 11.567,1.484 15.31,4.453c3.743,2.969 5.615,6.882 5.615,11.739Z" style="fill:#fff;fill-rule:nonzero;"/></g><defs><linearGradient id="_Linear1" x1="0" y1="0" x2="1" y2="0" gradientUnits="userSpaceOnUse" gradientTransform="matrix(5.48024e-15,-89.4991,89.4991,5.48024e-15,45.5817,95.1159)"><stop offset="0" style="stop-color:#90cc08;stop-opacity:1"/><stop offset="1" style="stop-color:#c3f84b;stop-opacity:1"/></linearGradient><linearGradient id="_Linear2" x1="0" y1="0" x2="1" y2="0" gradientUnits="userSpaceOnUse" gradientTransform="matrix(5.48024e-15,-89.4991,89.4991,5.48024e-15,81.5886,117.471)"><stop offset="0" style="stop-color:#7ba1eb;stop-opacity:1"/><stop offset="1" style="stop-color:#90b9f3;stop-opacity:1"/></linearGradient></defs></svg>
