<?xml version="1.0" encoding="UTF-8" standalone="no"?>
<!DOCTYPE svg PUBLIC "-//W3C//DTD SVG 1.1//EN" "http://www.w3.org/Graphics/SVG/1.1/DTD/svg11.dtd">
<svg width="100%" height="100%" viewBox="0 0 50 50" version="1.1" xmlns="http://www.w3.org/2000/svg" xmlns:xlink="http://www.w3.org/1999/xlink" xml:space="preserve" xmlns:serif="http://www.serif.com/" style="fill-rule:evenodd;clip-rule:evenodd;stroke-linejoin:round;stroke-miterlimit:2;">
    <g id="Group_62" transform="matrix(1,0,0,1,-4741,-2065)">
        <g transform="matrix(1,0,0,1,4741,2065)">
            <g id="Group_56">
                <g id="Group_41">
                    <path id="Rectangle_67" d="M50,5C50,2.24 47.76,0 45,0L5,0C2.24,0 0,2.24 0,5L0,45C0,47.76 2.24,50 5,50L45,50C47.76,50 50,47.76 50,45L50,5Z" style="fill:rgb(70,29,124);"/>
                </g>
            </g>
        </g>
        <g transform="matrix(1,0,0,1,4747.94,2071.78)">
            <path d="M34.062,16.016C34.062,12.696 31.366,10 28.046,10L16.013,10C12.693,10 9.997,12.696 9.997,16.016L9.997,28.049C9.997,31.369 12.693,34.065 16.013,34.065L28.046,34.065C31.366,34.065 34.062,31.369 34.062,28.049L34.062,16.016ZM32.04,15.816L12.019,15.816C11.907,16.228 11.847,16.663 11.847,17.111L11.847,26.954C11.847,29.671 14.052,31.876 16.769,31.876L27.29,31.876C30.007,31.876 32.212,29.671 32.212,26.954L32.212,17.111C32.212,16.663 32.152,16.228 32.04,15.816ZM30.779,13.641C29.888,12.745 28.653,12.189 27.29,12.189L16.769,12.189C15.406,12.189 14.171,12.745 13.28,13.641L30.779,13.641Z" style="fill:white;"/>
        </g>
        <g transform="matrix(1,0,0,1,4741,2065)">
            <rect x="10.753" y="14.971" width="22.542" height="17.842" style="fill:rgb(70,29,124);"/>
        </g>
        <g transform="matrix(1,0,0,1,4741,2065)">
            <path d="M34.062,16.016C34.062,12.696 31.366,10 28.046,10L16.013,10C12.693,10 9.997,12.696 9.997,16.016L9.997,28.049C9.997,31.369 12.693,34.065 16.013,34.065L28.046,34.065C31.366,34.065 34.062,31.369 34.062,28.049L34.062,16.016ZM32.04,15.816L12.019,15.816C11.907,16.228 11.847,16.663 11.847,17.111L11.847,26.954C11.847,29.671 14.052,31.876 16.769,31.876L27.29,31.876C30.007,31.876 32.212,29.671 32.212,26.954L32.212,17.111C32.212,16.663 32.152,16.228 32.04,15.816ZM30.779,13.641C29.888,12.745 28.653,12.189 27.29,12.189L16.769,12.189C15.406,12.189 14.171,12.745 13.28,13.641L30.779,13.641Z" style="fill:white;"/>
        </g>
        <g transform="matrix(1,0,0,1,4741,2065)">
            <path d="M28.924,26.22L14.376,26.22L14.376,27.324L28.924,27.324L28.924,26.22ZM25,23.892L14.376,23.892L14.376,24.997L25,24.997L25,23.892ZM26.477,21.48L14.376,21.48L14.376,22.585L26.477,22.585L26.477,21.48ZM27.848,19.083L14.376,19.083L14.376,20.188L27.848,20.188L27.848,19.083Z" style="fill:white;"/>
        </g>
    </g>
</svg>
