<?xml version="1.0" encoding="UTF-8" standalone="no"?>
<!DOCTYPE svg PUBLIC "-//W3C//DTD SVG 1.1//EN" "http://www.w3.org/Graphics/SVG/1.1/DTD/svg11.dtd">
<svg width="100%" height="100%" viewBox="0 0 50 50" version="1.1" xmlns="http://www.w3.org/2000/svg" xmlns:xlink="http://www.w3.org/1999/xlink" xml:space="preserve" xmlns:serif="http://www.serif.com/" style="fill-rule:evenodd;clip-rule:evenodd;stroke-linejoin:round;stroke-miterlimit:2;">
    <g transform="matrix(0.677344,0,0,0.677344,-3203.49,-1391)">
        <g id="Group_62">
            <g>
                <g transform="matrix(1.56984,0,0,1.56977,4726.44,2050.74)">
                    <rect x="11.557" y="15.579" width="20.732" height="16.333" style="fill:rgb(70,29,124);"/>
                </g>
                <g transform="matrix(1.58702,0,0,1.58702,4725.93,2050.18)">
                    <path d="M16.013,34.065L16.937,34.065L16.937,34.829C16.937,38.149 19.633,40.845 22.953,40.845L34.986,40.845C38.306,40.845 41.002,38.149 41.002,34.829L41.002,22.796C41.002,19.476 38.306,16.78 34.986,16.78L34.062,16.78L34.062,16.016C34.062,12.696 31.366,10 28.046,10L16.013,10C12.693,10 9.997,12.696 9.997,16.016L9.997,28.049C9.997,31.369 12.693,34.065 16.013,34.065ZM34.062,22.596L34.062,28.049C34.062,31.369 31.366,34.065 28.046,34.065L18.798,34.065C18.968,36.628 21.103,38.656 23.709,38.656L34.23,38.656C36.947,38.656 39.152,36.451 39.152,33.734L39.152,23.891C39.152,23.443 39.092,23.008 38.98,22.596L34.062,22.596ZM32.04,15.816L12.019,15.816C11.907,16.228 11.847,16.663 11.847,17.111L11.847,26.954C11.847,29.671 14.052,31.876 16.769,31.876L27.29,31.876C30.007,31.876 32.212,29.671 32.212,26.954L32.212,17.111C32.212,16.663 32.152,16.228 32.04,15.816ZM28.924,26.22L14.376,26.22L14.376,27.324L28.924,27.324L28.924,26.22ZM25,23.892L14.376,23.892L14.376,24.997L25,24.997L25,23.892ZM26.477,21.48L14.376,21.48L14.376,22.585L26.477,22.585L26.477,21.48ZM34.062,20.421L37.719,20.421C36.828,19.525 35.593,18.969 34.23,18.969L34.062,18.969L34.062,20.421ZM27.848,19.083L14.376,19.083L14.376,20.188L27.848,20.188L27.848,19.083ZM30.779,13.641C29.888,12.745 28.653,12.189 27.29,12.189L16.769,12.189C15.406,12.189 14.171,12.745 13.28,13.641L30.779,13.641Z" style="fill:white;"/>
                </g>
            </g>
        </g>
    </g>
</svg>
