<?xml version="1.0" standalone="no"?>
<!DOCTYPE svg PUBLIC "-//W3C//DTD SVG 1.1//EN" "http://www.w3.org/Graphics/SVG/1.1/DTD/svg11.dtd">
<svg width="24px" height="24px" viewBox="0 0 512 512" version="1.1" xmlns="http://www.w3.org/2000/svg" xmlns:xlink="http://www.w3.org/1999/xlink" xml:space="preserve" style="fill-rule:evenodd;clip-rule:evenodd;stroke-linecap:round;stroke-linejoin:round;stroke-miterlimit:1.41421;">
    <circle cx="256" cy="256" r="256" style="fill:rgb(117,73,177);"/>
    <g transform="matrix(0.588363,0,0,0.588363,105.379,105.379)">
        <circle cx="256" cy="256" r="256" style="fill:rgb(57,23,100);"/>
    </g>
    <g transform="matrix(1.58144e-16,0.558267,-0.558267,1.58144e-16,436.506,104.856)">
        <path d="M270.737,170.791L396.411,422.138L145.064,422.138L270.737,170.791Z" style="fill:white;stroke-width:50.16px;stroke:white;"/>
    </g>
    <g transform="matrix(0.631281,0,0,0.631281,94.3922,94.3922)">
        <path d="M256,0C397.29,0 512,114.71 512,256C512,397.29 397.29,512 256,512C114.71,512 0,397.29 0,256C0,114.71 114.71,0 256,0ZM256,41.94C374.143,41.94 470.06,137.857 470.06,256C470.06,374.143 374.143,470.06 256,470.06C137.857,470.06 41.94,374.143 41.94,256C41.94,137.857 137.857,41.94 256,41.94Z" style="fill:white;"/>
    </g>
</svg>
