<?xml version="1.0" encoding="UTF-8" standalone="no"?>
<!DOCTYPE svg PUBLIC "-//W3C//DTD SVG 1.1//EN" "http://www.w3.org/Graphics/SVG/1.1/DTD/svg11.dtd">
<svg width="100%" height="100%" viewBox="0 0 512 512" version="1.1" xmlns="http://www.w3.org/2000/svg" xmlns:xlink="http://www.w3.org/1999/xlink" xml:space="preserve" xmlns:serif="http://www.serif.com/" style="fill-rule:evenodd;clip-rule:evenodd;stroke-linejoin:round;stroke-miterlimit:2;">
    <g transform="matrix(0.965926,0.258819,-0.258819,0.965926,72.6045,-60.3234)">
        <path d="M385.861,99.893C385.861,86.596 375.066,75.801 361.77,75.801L169.036,75.801C155.74,75.801 144.945,86.596 144.945,99.893L144.945,391.27C144.945,404.567 155.74,415.362 169.036,415.362L361.77,415.362C375.066,415.362 385.861,404.567 385.861,391.27L385.861,99.893ZM296.834,309.173L178.125,309.173L178.125,320.565L296.834,320.565L296.834,309.173ZM276.834,265.539L178.125,265.539L178.125,276.93L276.834,276.93L276.834,265.539ZM355.882,221.904L178.125,221.904L178.125,233.296L355.882,233.296L355.882,221.904ZM290.257,178.27L178.125,178.27L178.125,189.661L290.257,189.661L290.257,178.27ZM312.13,134.635L178.125,134.635L178.125,146.027L312.13,146.027L312.13,134.635Z" style="fill:white;"/>
    </g>
    <path d="M426.214,120.907C429.891,126.485 431.245,133.555 429.354,140.501L360.686,392.682L440.097,392.682C450.079,392.682 458.183,384.578 458.183,374.595L458.183,138.993C458.183,129.011 450.079,120.907 440.097,120.907L426.214,120.907Z" style="fill:white;"/>
    <path d="M159.149,114.021L43.937,144.502C34.772,146.926 29.3,156.335 31.725,165.5L92.956,396.947C95.38,406.111 104.789,411.584 113.954,409.159L158.961,397.252L110.582,384.079C97.752,380.585 90.173,367.333 93.666,354.504L159.149,114.021Z" style="fill:white;"/>
</svg>
