<?xml version="1.0" encoding="UTF-8" standalone="no"?>
<!DOCTYPE svg PUBLIC "-//W3C//DTD SVG 1.1//EN" "http://www.w3.org/Graphics/SVG/1.1/DTD/svg11.dtd">
<svg width="100%" height="100%" viewBox="0 0 24 24" version="1.1" xmlns="http://www.w3.org/2000/svg" xmlns:xlink="http://www.w3.org/1999/xlink" xml:space="preserve" xmlns:serif="http://www.serif.com/" style="fill-rule:evenodd;clip-rule:evenodd;stroke-linecap:round;stroke-linejoin:round;stroke-miterlimit:10;">
    <g transform="matrix(1.01161,0,0,1,0,0)">
        <path d="M23.725,0.96C23.725,0.43 23.299,0 22.776,0L0.949,0C0.425,0 0,0.43 0,0.96L0,23.04C0,23.57 0.425,24 0.949,24L22.776,24C23.299,24 23.725,23.57 23.725,23.04L23.725,0.96Z" style="fill:rgb(153,153,153);"/>
    </g>
    <g transform="matrix(0.831681,0,0,0.831681,2.08969,2.01982)">
        <path d="M23.088,18.984C23.088,19.776 22.488,20.4 21.744,20.4L2.064,20.4C1.32,20.4 0.72,19.752 0.72,18.984L0.72,5.016C0.72,4.248 1.32,3.6 2.064,3.6L21.768,3.6C22.512,3.6 23.112,4.224 23.112,5.016L23.088,18.984Z" style="fill:none;fill-rule:nonzero;stroke:white;stroke-width:0.72px;"/>
        <path d="M16.248,8.304L18.84,12.816L21.456,17.328L11.04,17.328L13.656,12.816L16.248,8.304Z" style="fill:white;fill-rule:nonzero;"/>
        <path d="M7.872,10.656L11.712,17.328L4.032,17.328L7.872,10.656" style="fill:white;fill-rule:nonzero;"/>
        <circle cx="4.392" cy="8.04" r="1.848" style="fill:white;"/>
    </g>
</svg>
