<?xml version="1.0" encoding="UTF-8" standalone="no"?>
<!DOCTYPE svg PUBLIC "-//W3C//DTD SVG 1.1//EN" "http://www.w3.org/Graphics/SVG/1.1/DTD/svg11.dtd">
<svg width="100%" height="100%" viewBox="0 0 24 24" version="1.1" xmlns="http://www.w3.org/2000/svg" xmlns:xlink="http://www.w3.org/1999/xlink" xml:space="preserve" xmlns:serif="http://www.serif.com/" style="fill-rule:evenodd;clip-rule:evenodd;stroke-linecap:round;stroke-linejoin:round;stroke-miterlimit:10;">
    <g>
        <path d="M22.152,0.528C22.968,0.528 23.592,1.152 23.592,1.896L23.592,22.008C23.592,22.776 22.944,23.376 22.152,23.376L7.896,23.376C7.104,23.376 6.456,22.752 6.456,22.008L6.456,1.896C6.456,1.128 7.104,0.528 7.896,0.528L22.152,0.528Z" style="fill:white;fill-rule:nonzero;stroke:rgb(153,153,153);stroke-width:0.72px;"/>
        <circle cx="6.336" cy="12" r="5.76" style="fill:rgb(255,152,0);stroke:rgb(255,152,0);stroke-width:0.72px;"/>
        <g transform="matrix(1.13529,0,0,0.662264,-9.18076,4.05283)">
            <path d="M10.584,8.28L16.608,8.28" style="fill:none;fill-rule:nonzero;stroke:white;stroke-width:1.08px;"/>
        </g>
        <g transform="matrix(1.13529,0,0,0.662264,-9.18076,4.05283)">
            <path d="M10.584,11.928L16.608,11.928" style="fill:none;fill-rule:nonzero;stroke:white;stroke-width:1.08px;"/>
        </g>
        <g transform="matrix(1.13529,0,0,0.662264,-9.18076,4.05283)">
            <path d="M10.584,15.84L16.608,15.84" style="fill:none;fill-rule:nonzero;stroke:white;stroke-width:1.08px;"/>
        </g>
    </g>
    <g transform="matrix(2.11884,0,0,2.11884,10.7028,20.7928)">
        <text x="0px" y="0px" style="font-family:'LucidaGrande', 'Lucida Grande', sans-serif;font-weight:500;font-size:11.197px;fill:rgb(153,153,153);">?</text>
    </g>
</svg>
