<?xml version="1.0" encoding="UTF-8" standalone="no"?>
<!DOCTYPE svg PUBLIC "-//W3C//DTD SVG 1.1//EN" "http://www.w3.org/Graphics/SVG/1.1/DTD/svg11.dtd">
<svg width="100%" height="100%" viewBox="0 0 512 512" version="1.1" xmlns="http://www.w3.org/2000/svg" xmlns:xlink="http://www.w3.org/1999/xlink" xml:space="preserve" xmlns:serif="http://www.serif.com/" style="fill-rule:evenodd;clip-rule:evenodd;stroke-linejoin:round;stroke-miterlimit:2;">
    <g transform="matrix(7.43749,0,0,7.43749,87.6088,87.4548)">
        <path d="M10.161,8.159L17.016,10.523L15.921,16.11L6.418,12.835L8.755,8.725C9.102,8.115 9.564,7.953 10.161,8.159" style="fill:rgb(70,29,124);"/>
    </g>
    <g transform="matrix(7.43749,0,0,7.43749,87.6088,87.4548)">
        <path d="M0.473,25.815L6.456,20.478L11.093,24.612L2.796,32.013L0.231,27.489C-0.152,26.818 -0.05,26.281 0.473,25.815" style="fill:rgb(105,43,186);"/>
    </g>
    <g transform="matrix(7.43749,0,0,7.43749,87.6088,87.4548)">
        <path d="M11.209,44.059L9.499,35.329L15.921,33.114L18.294,45.218L12.643,45.218C11.803,45.218 11.358,44.821 11.209,44.059" style="fill:rgb(144,90,216);"/>
    </g>
    <g transform="matrix(7.43749,0,0,7.43749,87.6088,87.4548)">
        <path d="M33.243,43.697L24.12,40.552L25.578,33.114L38.225,37.474L35.115,42.944C34.653,43.757 34.041,43.973 33.243,43.697" style="fill:rgb(186,152,231);"/>
    </g>
    <g transform="matrix(7.43749,0,0,7.43749,87.6088,87.4548)">
        <path d="M44.54,23.01L36.576,30.114L30.406,24.613L41.449,14.762L44.865,20.784C45.372,21.677 45.236,22.389 44.54,23.01" style="fill:rgb(227,214,245);"/>
    </g>
    <g transform="matrix(7.43749,0,0,7.43749,87.6088,87.4548)">
        <path d="M31.851,1.542L34.128,13.163L25.578,16.11L22.419,0L29.942,0C31.056,0 31.652,0.528 31.851,1.543" style="fill:rgb(241,234,250);"/>
    </g>
</svg>
