<?xml version="1.0" encoding="UTF-8" standalone="no"?>
<!DOCTYPE svg PUBLIC "-//W3C//DTD SVG 1.1//EN" "http://www.w3.org/Graphics/SVG/1.1/DTD/svg11.dtd">
<svg width="100%" height="100%" viewBox="0 0 512 512" version="1.1" xmlns="http://www.w3.org/2000/svg" xmlns:xlink="http://www.w3.org/1999/xlink" xml:space="preserve" xmlns:serif="http://www.serif.com/" style="fill-rule:evenodd;clip-rule:evenodd;stroke-linejoin:round;stroke-miterlimit:2;">
    <g transform="matrix(3.05382,0,0,3.05382,355.353,201.438)">
        <path d="M0,41.969L15.738,26.231C18.636,23.333 18.636,18.636 15.738,15.739L0,0C5.794,-5.795 5.794,-15.19 0,-20.984C-5.795,-26.779 -15.19,-26.779 -20.985,-20.984L-36.723,-36.723C-39.621,-39.621 -44.318,-39.621 -47.216,-36.723L-73.446,-10.492L-73.446,52.461L-47.216,78.693C-44.318,81.59 -39.621,81.589 -36.723,78.693L-20.985,62.953C-26.779,57.159 -26.779,47.764 -20.985,41.969C-15.19,36.174 -5.795,36.174 0,41.969" style="fill:rgb(253,208,35);"/>
    </g>
    <g transform="matrix(0.751509,0,0,0.751509,34.9374,63.6137)">
        <path d="M468.765,224.968C476.36,232.559 480.541,242.661 480.541,253.401C480.541,264.141 476.36,274.239 468.765,281.838L397.693,352.91L390.577,345.791C370.987,326.208 339.124,326.208 319.534,345.791C299.955,365.377 299.955,397.244 319.538,416.831L326.653,423.95L255.585,495.022C247.742,502.861 237.445,506.778 227.144,506.778C216.847,506.778 206.55,502.861 198.711,495.022L89.169,385.48L89.173,121.322L198.711,11.784C206.306,4.19 216.404,0 227.148,0C237.888,0 247.986,4.19 255.585,11.784L312.926,69.126C340.465,48.515 379.788,50.718 404.812,75.737C418.1,89.029 425.418,106.698 425.418,125.492C425.418,140.889 420.51,155.53 411.428,167.623L468.765,224.968ZM454.53,267.602C458.321,263.807 460.41,258.764 460.41,253.4C460.41,248.04 458.321,242.993 454.53,239.202L383.458,168.13L390.577,161.01C400.062,151.522 405.287,138.908 405.287,125.49C405.287,112.077 400.062,99.459 390.577,89.975C370.987,70.388 339.124,70.392 319.538,89.971L312.418,97.09L241.346,26.018C237.551,22.227 232.512,20.138 227.148,20.138C221.784,20.138 216.741,22.227 212.95,26.018L113.473,125.49L212.946,224.963C228.627,240.644 228.627,266.164 212.946,281.837L113.473,381.305L212.946,480.782C216.737,484.581 221.784,486.662 227.148,486.662C232.512,486.662 237.551,484.581 241.346,480.782L298.687,423.445C278.081,395.898 280.283,356.578 305.299,331.555C330.322,306.539 369.642,304.333 397.185,324.943L454.53,267.602ZM198.711,239.203L109.304,149.796L109.304,357.01L198.711,267.603C202.502,263.808 204.595,258.765 204.595,253.401C204.595,248.041 202.502,242.994 198.711,239.203Z" style="fill:rgb(70,29,124);"/>
    </g>
</svg>
