<?xml version="1.0" encoding="UTF-8" standalone="no"?>
<!DOCTYPE svg PUBLIC "-//W3C//DTD SVG 1.1//EN" "http://www.w3.org/Graphics/SVG/1.1/DTD/svg11.dtd">
<svg width="100%" height="100%" viewBox="0 0 512 512" version="1.1" xmlns="http://www.w3.org/2000/svg" xmlns:xlink="http://www.w3.org/1999/xlink" xml:space="preserve" xmlns:serif="http://www.serif.com/" style="fill-rule:evenodd;clip-rule:evenodd;stroke-linejoin:round;stroke-miterlimit:2;">
    <g transform="matrix(1,0,0,1,94.0289,73.4215)">
        <path d="M0,225L0,18.528C-0,8.295 8.295,0 18.528,0C75.374,0 246.938,0 304.714,-0C315.334,-0 323.946,8.605 323.954,19.225C323.967,48.424 323.982,112.772 323.942,225C323.935,243.611 312.654,257.429 297.154,268.785C253.504,300.762 161.765,365.157 161.765,365.157C161.765,365.157 70.826,301.101 27.631,269.628C14.777,260.262 0,240.656 0,225Z" style="fill:rgb(70,29,124);fill-rule:nonzero;"/>
    </g>
    <g transform="matrix(1,0,0,1,94.0289,73.4215)">
        <path d="M218.17,217.265C220.31,217.275 222.51,217.354 224.575,217.854C232.961,219.886 237.947,226.38 237.246,234.083C236.608,241.085 230.058,247.248 222.124,247.658C215.012,248.026 207.868,247.782 200.738,247.818C187.973,247.885 124.571,247.793 105.634,247.744C101.925,247.735 98.302,247.474 95.016,245.6C90.096,242.794 86.74,238.843 86.645,232.776C86.552,226.726 89.632,222.572 94.582,219.701C97.829,217.817 101.401,217.288 105.139,217.286L218.17,217.265ZM176.763,211.156C175.237,204.293 173.786,197.769 172.302,191.101C175.43,188.282 177.492,184.905 178.541,180.789C193.467,180.789 208.227,180.391 222.951,180.943C231.384,181.259 237.419,188.491 237.277,196.232C237.142,203.602 230.889,210.613 222.784,210.926C209.358,211.447 195.901,211.125 182.457,211.156C180.655,211.16 178.853,211.156 176.763,211.156ZM145.209,180.85C146.431,184.749 147.819,188.361 151.47,190.695C150.029,197.383 148.618,203.934 147.169,210.663C142.667,211.536 138.192,211.01 133.753,211.052C124.122,211.145 114.491,211.08 104.859,211.082C102.7,211.082 100.59,210.982 98.472,210.312C90.719,207.858 86.219,202.064 86.661,194.861C87.082,188.007 93.269,181.239 100.896,180.99C115.64,180.511 130.409,180.85 145.209,180.85ZM217.21,144.086C220.521,144.107 223.821,143.947 227.026,145.228C233.391,147.772 237.314,153.063 237.278,159.328C237.241,165.555 233.246,170.978 226.867,173.301C224.521,174.157 222.084,174.667 219.558,174.666C205.449,174.65 191.339,174.659 177.046,174.659C173.065,170.605 168.799,166.883 162.534,167.414C157.174,166.759 152.759,168.959 149.057,172.541C147.446,174.099 145.927,174.631 143.823,174.621C130.877,174.551 117.93,174.619 104.984,174.546C103.018,174.536 101.012,174.211 99.097,173.737C91.147,171.765 86.273,165.659 86.662,158.334C87.044,151.127 93.23,144.788 101.245,144.3C109.68,143.787 118.158,143.941 126.619,143.879L217.21,144.086ZM162.444,58.719C176.628,58.96 189.199,63.254 199.298,73.814C206.294,81.13 210.453,89.859 210.765,100.04C211.127,111.851 210.866,123.681 210.837,135.504C210.835,136.305 210.519,137.106 210.321,138.035L191.406,138.035C191.406,127.659 191.409,117.572 191.405,107.485C191.397,90.386 179.555,78.855 162.5,79.335C145.382,78.263 132.329,90.631 132.301,107.965C132.285,117.878 132.298,127.791 132.298,137.964L112.868,137.964C113.422,122.945 111.165,108.038 114.198,93.434C118.061,74.834 136.741,60.321 156.994,59.111C158.811,59.001 160.628,58.85 162.444,58.719Z" style="fill:white;fill-rule:nonzero;"/>
    </g>
    <g id="Layer-1" serif:id="Layer 1">
    </g>
    <g id="Layer-11" serif:id="Layer 1">
    </g>
</svg>
