<?xml version="1.0" encoding="UTF-8" standalone="no"?><!DOCTYPE svg PUBLIC "-//W3C//DTD SVG 1.1//EN" "http://www.w3.org/Graphics/SVG/1.1/DTD/svg11.dtd"><svg width="100%" height="100%" viewBox="0 0 243 274" version="1.1" xmlns="http://www.w3.org/2000/svg" xmlns:xlink="http://www.w3.org/1999/xlink" xml:space="preserve" xmlns:serif="http://www.serif.com/" style="fill-rule:evenodd;clip-rule:evenodd;stroke-linejoin:round;stroke-miterlimit:2;"><g id="Layer-1" serif:id="Layer 1"><path d="M0,168.75l0,-168.75l242.957,0c0,0 0.043,46.5 0,168.75c-0.005,13.958 -8.466,24.322 -20.091,32.839c-32.738,23.983 -101.542,72.279 -101.542,72.279c0,0 -68.204,-48.042 -100.601,-71.647c-9.64,-7.024 -20.723,-21.729 -20.723,-33.471Z" style="fill:#f6941e;fill-rule:nonzero;"/><path d="M121.324,254.656l0,-240.439l106.021,0.033c0,0 0.108,99.04 -0.174,146.627c-0.076,12.984 -5.959,23.289 -16.851,30.949c-23.069,16.224 -88.996,62.83 -88.996,62.83Z" style="fill:#fbaf40;fill-rule:nonzero;"/></g><g id="Layer-11" serif:id="Layer 1"><path d="M163.628,162.949c1.605,0.007 3.255,0.066 4.803,0.441c6.29,1.525 10.029,6.395 9.503,12.173c-0.478,5.251 -5.39,9.873 -11.341,10.181c-5.334,0.276 -10.692,0.092 -16.039,0.12c-9.574,0.05 -57.126,-0.019 -71.328,-0.056c-2.782,-0.007 -5.5,-0.203 -7.964,-1.608c-3.69,-2.104 -6.207,-5.068 -6.278,-9.618c-0.07,-4.538 2.24,-7.653 5.952,-9.806c2.436,-1.413 5.114,-1.81 7.919,-1.812" style="fill:#fefefe;fill-rule:nonzero;"/><path d="M162.907,108.064c2.483,0.016 4.959,-0.104 7.363,0.857c4.773,1.908 7.716,5.876 7.688,10.575c-0.028,4.67 -3.023,8.737 -7.808,10.48c-1.759,0.642 -3.587,1.024 -5.481,1.023c-10.582,-0.011 -21.165,-0.005 -31.885,-0.005c-2.985,-3.041 -6.185,-5.832 -10.884,-5.433c-4.019,-0.492 -7.331,1.159 -10.107,3.845c-1.208,1.168 -2.348,1.567 -3.926,1.56c-9.709,-0.053 -19.42,-0.002 -29.129,-0.056c-1.474,-0.008 -2.979,-0.251 -4.416,-0.607c-5.962,-1.479 -9.617,-6.059 -9.325,-11.553c0.286,-5.405 4.926,-10.159 10.937,-10.525c6.326,-0.385 12.685,-0.269 19.03,-0.316" style="fill:#fefefe;fill-rule:nonzero;"/><path d="M121.833,44.039c10.638,0.181 20.067,3.401 27.641,11.321c5.247,5.487 8.366,12.034 8.6,19.67c0.271,8.858 0.076,17.731 0.054,26.598c-0.002,0.601 -0.239,1.201 -0.387,1.899l-14.186,0c0,-7.783 0.002,-15.348 -0.001,-22.913c-0.006,-12.824 -8.887,-21.473 -21.679,-21.113c-12.838,-0.804 -22.629,8.472 -22.65,21.473c-0.012,7.435 -0.002,14.869 -0.002,22.499l-14.572,0c0.416,-11.264 -1.278,-22.444 0.998,-33.398c2.897,-13.95 16.906,-24.834 32.097,-25.742c1.362,-0.082 2.725,-0.195 4.087,-0.294" style="fill:#fefefe;fill-rule:nonzero;"/><path d="M108.907,135.638c0.916,2.924 1.957,5.633 4.696,7.383c-1.081,5.016 -2.14,9.929 -3.226,14.976c-3.377,0.655 -6.733,0.26 -10.062,0.292c-7.224,0.069 -14.447,0.021 -21.671,0.022c-1.619,0 -3.201,-0.074 -4.79,-0.577c-5.815,-1.84 -9.19,-6.186 -8.858,-11.588c0.315,-5.141 4.956,-10.217 10.676,-10.403c11.058,-0.36 22.135,-0.105 33.235,-0.105" style="fill:#fefefe;fill-rule:nonzero;"/><path d="M132.572,158.367c-1.144,-5.147 -2.232,-10.04 -3.345,-15.041c2.345,-2.115 3.892,-4.647 4.679,-7.734c11.194,0 22.264,-0.299 33.307,0.115c6.325,0.238 10.851,5.662 10.745,11.467c-0.102,5.527 -4.792,10.786 -10.87,11.021c-10.069,0.39 -20.162,0.149 -30.245,0.172c-1.352,0.003 -2.704,0 -4.271,0" style="fill:#fefefe;fill-rule:nonzero;"/></g></svg>