<?xml version="1.0" encoding="UTF-8" standalone="no"?>
<!DOCTYPE svg PUBLIC "-//W3C//DTD SVG 1.1//EN" "http://www.w3.org/Graphics/SVG/1.1/DTD/svg11.dtd">
<svg width="100%" height="100%" viewBox="0 0 512 512" version="1.1" xmlns="http://www.w3.org/2000/svg" xmlns:xlink="http://www.w3.org/1999/xlink" xml:space="preserve" xmlns:serif="http://www.serif.com/" style="fill-rule:evenodd;clip-rule:evenodd;stroke-linejoin:round;stroke-miterlimit:2;">
    <g transform="matrix(0.177159,0,0,0.177159,341.049,182.493)">
        <path d="M0,829.748C78.22,828.938 138.906,765.611 137.465,686.304C136.074,609.832 74.239,550.627 -3.572,551.268C-82.404,551.915 -142.519,614.398 -141.041,694.153C-139.631,770.299 -76.964,830.546 0,829.748M-343.389,827.56C-341.394,819.778 -338.766,814.341 -338.789,808.915C-339.547,638.075 -335.035,466.959 -343.601,296.502C-348.777,193.473 -408.82,119.038 -511.528,87.49C-616.692,55.188 -711.164,68.775 -786.664,156.557C-795.18,166.458 -804.156,175.963 -820.455,193.985L-820.455,-265.728L-1026.56,-265.728L-1026.56,826.525L-818.459,826.525C-818.459,726.318 -820.886,629.61 -817.467,533.11C-815.674,482.501 -809.048,430.677 -794.947,382.216C-773.993,310.2 -719.431,275.685 -658.953,285.933C-581.669,299.029 -551.273,337.28 -551.017,423.478C-550.664,541.679 -551.003,659.881 -550.804,778.082C-550.777,794.462 -549.369,810.84 -548.584,827.56L-343.389,827.56ZM-480.035,1367.3C-542.891,1283.54 -600.846,1208.01 -656.678,1130.93C-674.365,1106.52 -693.85,1097.11 -724.134,1097.45C-862.152,1098.98 -1000.2,1098.4 -1138.23,1098.02C-1242.9,1097.73 -1297.04,1044.46 -1297.11,940.605C-1297.41,500.576 -1297.41,60.545 -1297.12,-379.485C-1297.05,-483.638 -1243.16,-537.196 -1138.61,-537.257C-698.885,-537.515 -259.164,-537.55 180.556,-537.224C282.021,-537.148 336.839,-482.702 336.922,-381.646C337.283,59.808 337.295,501.263 336.911,942.717C336.823,1043.56 281.799,1097.63 180.229,1097.99C40.773,1098.48 -98.694,1098.89 -238.139,1097.49C-266.85,1097.2 -285.422,1106.14 -302.197,1129.2C-358.911,1207.15 -417.435,1283.79 -480.035,1367.3" style="fill:rgb(70,29,124);fill-rule:nonzero;"/>
    </g>
    <g transform="matrix(0.177159,0,0,0.177159,280.215,135.417)">
        <path d="M0,1093.29L-205.195,1093.29C-205.98,1076.57 -207.388,1060.19 -207.416,1043.81C-207.614,925.608 -207.276,807.406 -207.628,689.206C-207.885,603.007 -238.28,564.756 -315.564,551.66C-376.042,541.412 -430.604,575.928 -451.559,647.943C-465.66,696.404 -472.285,748.228 -474.079,798.838C-477.498,895.338 -475.07,992.046 -475.07,1092.25L-683.17,1092.25L-683.17,0L-477.066,0L-477.066,459.712C-460.767,441.69 -451.791,432.185 -443.275,422.284C-367.775,334.503 -273.304,320.916 -168.139,353.218C-65.432,384.765 -5.389,459.2 -0.212,562.23C8.354,732.686 3.842,903.803 4.6,1074.64C4.623,1080.07 1.994,1085.51 0,1093.29" style="fill:white;fill-rule:nonzero;"/>
    </g>
    <g transform="matrix(0.177145,-0.0022722,-0.0022722,-0.177145,341.365,329.485)">
        <path d="M-1.785,-0.012C-78.753,0.177 -140.642,61.223 -141.075,137.381C-141.53,217.148 -80.619,278.855 -1.785,278.491C76.028,278.134 137.098,218.141 137.508,141.657C137.932,62.338 76.439,-0.205 -1.785,-0.012" style="fill:white;fill-rule:nonzero;"/>
    </g>
</svg>
