<?xml version="1.0" standalone="no"?><!DOCTYPE svg PUBLIC "-//W3C//DTD SVG 1.1//EN" "http://www.w3.org/Graphics/SVG/1.1/DTD/svg11.dtd"><svg width="100%" height="100%" viewBox="0 0 274 65" version="1.1" xmlns="http://www.w3.org/2000/svg" xmlns:xlink="http://www.w3.org/1999/xlink" xml:space="preserve" style="fill-rule:evenodd;clip-rule:evenodd;stroke-linejoin:round;stroke-miterlimit:1.41421;"><g id="Layer1"><path d="M22.371,51.828l35.987,0l0,13.158l-58.358,0l0,-64.972l22.371,0l0,51.814Z" style="fill:#ffc424;fill-rule:nonzero;"/><path d="M83.161,0.014l50.256,0l0,13.237l-39.638,0c-4.132,0 -7.538,2.52 -7.538,5.605l0,6.984l47.176,0l0,24.69c0,7.96 -8.757,14.456 -19.533,14.456l-50.176,0l0,-13.237l39.556,0c4.214,0 7.619,-2.518 7.619,-5.604l0,-7.066l-47.175,0l0,-24.609c0,-7.958 8.754,-14.456 19.453,-14.456" style="fill:#ffc424;fill-rule:nonzero;"/><path d="M186.427,0.014l22.453,0l0,50.516c0,7.96 -8.755,14.456 -19.452,14.456l-50.093,0l0,-64.809l22.287,0l0,51.651l17.184,0c4.215,0 7.621,-2.515 7.621,-5.683l0,-46.131Z" style="fill:#ffc424;fill-rule:nonzero;"/><path d="M235.265,13.253l0,12.587l19.489,0l0,13.239l-19.489,0l0,12.668l38.735,0l0,13.239l-68.165,0c0,0 9.655,-3.466 9.655,-12.455l0,-38.061l0,-14.456l58.51,0l0,13.239" style="fill:#fff;fill-rule:nonzero;"/></g></svg>
