<?xml version="1.0" encoding="UTF-8" standalone="no"?>
<!DOCTYPE svg PUBLIC "-//W3C//DTD SVG 1.1//EN" "http://www.w3.org/Graphics/SVG/1.1/DTD/svg11.dtd">
<svg width="100%" height="100%" viewBox="0 0 330 65" version="1.1" xmlns="http://www.w3.org/2000/svg" xmlns:xlink="http://www.w3.org/1999/xlink" xml:space="preserve" xmlns:serif="http://www.serif.com/" style="fill-rule:evenodd;clip-rule:evenodd;stroke-linejoin:round;stroke-miterlimit:2;">
    <g id="Layer1">
        <path d="M22.427,51.839L22.427,0.001L0.002,0.001L0.002,65.001L58.502,65.001L58.502,51.839L22.427,51.839Z" style="fill:white;fill-rule:nonzero;"/>
        <path d="M82.552,0.001C77.19,0.001 72.599,1.409 68.78,4.226C64.962,7.043 63.052,10.455 63.052,14.464L63.052,39.082L110.34,39.082L110.34,46.151C110.34,47.722 109.595,49.049 108.105,50.132C106.616,51.216 104.815,51.757 102.702,51.757L63.052,51.757L63.052,65.001L113.346,65.001C118.763,65.001 123.38,63.593 127.199,60.776C131.018,57.959 132.927,54.547 132.927,50.539L132.927,25.839L85.64,25.839L85.64,18.851C85.64,17.28 86.371,15.953 87.833,14.87C89.296,13.786 91.083,13.245 93.196,13.245L132.927,13.245L132.927,0.001L82.552,0.001Z" style="fill:white;fill-rule:nonzero;"/>
        <path d="M185.252,0.001L185.252,46.151C185.252,47.722 184.507,49.062 183.018,50.173C181.528,51.283 179.727,51.839 177.615,51.839L160.39,51.839L160.39,0.164L138.046,0.164L138.046,65.001L188.258,65.001C193.621,65.001 198.211,63.593 202.03,60.776C205.849,57.959 207.758,54.547 207.758,50.539L207.758,0.001L185.252,0.001Z" style="fill:white;fill-rule:nonzero;"/>
        <rect x="227.758" y="0" width="5.046" height="65" style="fill:white;"/>
        <g>
            <path d="M263.714,57.28C262.548,57.814 261.333,58.081 260.07,58.081C256.037,58.081 254.02,55.846 254.02,51.376L254.02,15.589C254.02,10.876 253.68,7.523 253,5.531L258.904,4.364C259.487,6.065 259.778,9.807 259.778,15.589L259.778,50.064C259.778,51.327 259.851,52.153 259.997,52.542C260.289,53.32 260.896,53.708 261.819,53.708C261.965,53.708 262.208,53.66 262.548,53.562L263.714,57.28Z" style="fill:white;fill-rule:nonzero;"/>
            <path d="M295.493,54.656L292.577,58.737C289.953,57.911 288.301,56.138 287.621,53.417C284.365,56.672 280.867,58.3 277.125,58.3C273.627,58.3 270.857,57.45 268.816,55.749C266.581,53.951 265.464,51.352 265.464,47.95C265.464,43.237 267.601,39.763 271.877,37.528C275.23,35.778 279.506,34.904 284.705,34.904C285.58,34.904 286.43,34.928 287.256,34.977L287.256,32.426C287.256,29.51 286.868,27.615 286.09,26.74C284.924,25.428 283.296,24.773 281.207,24.773C277.077,24.773 273.214,26.206 269.618,29.073L266.775,24.991C271.683,21.736 276.761,20.108 282.009,20.108C287.159,20.108 290.512,22.003 292.067,25.793C292.601,27.105 292.869,29.17 292.869,31.988L292.869,33.81L292.577,45.764C292.529,46.104 292.504,46.663 292.504,47.44C292.504,49.481 292.626,50.89 292.869,51.667C293.257,52.979 294.132,53.976 295.493,54.656ZM287.111,38.912C285.459,38.815 284.511,38.767 284.268,38.767C275.959,38.767 271.805,41.658 271.805,47.44C271.805,51.862 273.894,54.073 278.073,54.073C282.106,54.073 285.046,52.178 286.892,48.388L287.111,38.912Z" style="fill:white;fill-rule:nonzero;"/>
            <path d="M329.093,38.694C329.093,43.844 328,48.218 325.813,51.813C323.238,56.089 319.521,58.227 314.662,58.227C312.864,58.227 311.017,57.778 309.122,56.879C307.227,55.98 305.745,54.826 304.676,53.417C304.482,54.972 304.142,56.284 303.656,57.353L297.971,57.353C298.7,55.749 299.064,52.736 299.064,48.315L299.064,13.84C299.064,10.05 298.578,7.183 297.606,5.239L303.802,4C304.433,6.721 304.749,9.734 304.749,13.038L304.749,21.128C304.749,23.218 304.7,24.554 304.603,25.137C307.907,21.881 311.382,20.254 315.026,20.254C319.836,20.254 323.481,22.222 325.959,26.157C328.048,29.413 329.093,33.592 329.093,38.694ZM322.752,38.329C322.752,29.729 319.764,25.428 313.787,25.428C310.094,25.428 307.057,27.008 304.676,30.166L304.676,48.825C306.911,51.74 309.9,53.198 313.641,53.198C319.715,53.198 322.752,48.242 322.752,38.329Z" style="fill:white;fill-rule:nonzero;"/>
        </g>
    </g>
</svg>
