<?xml version="1.0" encoding="UTF-8" standalone="no"?>
<!DOCTYPE svg PUBLIC "-//W3C//DTD SVG 1.1//EN" "http://www.w3.org/Graphics/SVG/1.1/DTD/svg11.dtd">
<svg width="100%" height="100%" viewBox="0 0 350 50" version="1.1" xmlns="http://www.w3.org/2000/svg" xmlns:xlink="http://www.w3.org/1999/xlink" xml:space="preserve" xmlns:serif="http://www.serif.com/" style="fill-rule:evenodd;clip-rule:evenodd;stroke-linejoin:round;stroke-miterlimit:2;">
    <path d="M96.583,38.72L96.583,20.935L62.489,20.935L62.489,15.854C62.489,13.618 64.932,11.789 67.985,11.789L96.685,11.789L96.685,2.337L60.25,2.337C52.515,2.337 46.205,7.012 46.205,12.805L46.205,30.589L80.401,30.589L80.401,35.671C80.401,37.907 77.959,39.736 74.905,39.736L46.103,39.736L46.103,49.187L82.437,49.187C90.273,49.187 96.583,44.512 96.583,38.72Z" style="fill:white;fill-rule:nonzero;"/>
    <path d="M42.236,39.634L16.182,39.634L16.182,2.337L0,2.337L0,49.187L42.236,49.187L42.236,39.634Z" style="fill:white;fill-rule:nonzero;"/>
    <path d="M150.829,38.72L150.829,2.337L134.545,2.337L134.545,35.569C134.545,37.805 132.102,39.634 129.049,39.634L116.633,39.634L116.633,2.439L100.451,2.439L100.451,49.187L136.682,49.187C144.417,49.187 150.829,44.512 150.829,38.72Z" style="fill:white;fill-rule:nonzero;"/>
    <path d="M192.047,50C178.817,50 170.471,40.244 170.471,25.711C170.471,11.179 179.02,1.22 192.251,1.22C205.583,1.22 213.827,10.976 213.827,25.509C213.827,40.142 205.38,50 192.047,50ZM192.149,7.114C182.786,7.114 177.086,14.329 177.086,25.61C177.086,36.89 182.887,44.106 192.149,44.106C201.512,44.106 207.211,36.89 207.211,25.61C207.211,14.329 201.41,7.114 192.149,7.114Z" style="fill:white;fill-rule:nonzero;"/>
    <path d="M241.611,49.187L241.611,27.033C241.611,23.679 240.186,21.443 236.624,21.443C233.469,21.443 230.111,23.577 227.261,26.728L227.261,49.187L221.154,49.187L221.154,16.667L226.04,16.667L226.753,21.342C229.806,18.598 233.673,15.956 238.253,15.956C244.359,15.956 247.616,19.614 247.616,25.508L247.616,49.187L241.611,49.187Z" style="fill:white;fill-rule:nonzero;"/>
    <path d="M256.979,49.187L256.979,0.915L263.085,0L263.085,49.187L256.979,49.187Z" style="fill:white;fill-rule:nonzero;"/>
    <path d="M276.418,10.163C274.301,10.16 272.561,8.417 272.561,6.301C272.561,4.182 274.305,2.439 276.423,2.439C278.542,2.439 280.285,4.182 280.285,6.301C280.284,8.419 278.541,10.163 276.422,10.163C276.421,10.163 276.419,10.163 276.418,10.163ZM273.364,49.187L273.364,16.667L279.471,16.667L279.471,49.187L273.364,49.187Z" style="fill:white;fill-rule:nonzero;"/>
    <path d="M309.698,49.187L309.698,27.033C309.698,23.679 308.273,21.443 304.711,21.443C301.556,21.443 298.197,23.577 295.348,26.728L295.348,49.187L289.241,49.187L289.241,16.667L294.126,16.667L294.839,21.342C297.892,18.598 301.759,15.956 306.339,15.956C312.445,15.956 315.702,19.614 315.702,25.508L315.702,49.187L309.698,49.187Z" style="fill:white;fill-rule:nonzero;"/>
    <path d="M336.871,49.797C328.424,49.797 321.809,44.715 321.809,32.724C321.809,22.256 327.915,15.955 336.159,15.955C345.624,15.955 350,23.272 350,32.215L350,33.537L327.813,33.537C328.119,41.057 331.681,44.614 337.278,44.614C341.96,44.614 345.42,42.785 348.982,39.939L349.898,45.427C346.196,48.351 341.588,49.897 336.871,49.797ZM328.119,28.963L343.792,28.963C343.079,23.679 340.739,20.732 336.057,20.732C332.291,20.732 329.035,23.476 328.119,28.963Z" style="fill:white;fill-rule:nonzero;"/>
</svg>
