<?xml version="1.0" encoding="UTF-8" standalone="no"?>
<!DOCTYPE svg PUBLIC "-//W3C//DTD SVG 1.1//EN" "http://www.w3.org/Graphics/SVG/1.1/DTD/svg11.dtd">
<svg width="100%" height="100%" viewBox="0 0 512 512" version="1.1" xmlns="http://www.w3.org/2000/svg" xmlns:xlink="http://www.w3.org/1999/xlink" xml:space="preserve" xmlns:serif="http://www.serif.com/" style="fill-rule:evenodd;clip-rule:evenodd;stroke-linejoin:round;stroke-miterlimit:2;">
    <g transform="matrix(0.881338,0,0,0.881338,4.80458,0.677637)">
        <g id="monologo">
            <path d="M146.654,433.793L146.578,391.296C146.452,383.892 139.856,377.848 132.452,377.711C127.748,378.766 123.054,379.283 118.867,379.821C118.688,379.821 118.508,379.831 118.329,379.831C103.141,379.831 90.643,367.333 90.643,352.145C90.643,336.946 103.141,324.458 118.329,324.458L118.867,324.458C122.063,324.426 125.248,324.964 128.265,326.03C129.699,326.504 131.197,326.757 132.716,326.757C138.738,326.757 144.128,322.865 146.026,317.149C146.49,315.63 146.67,314.027 146.554,312.445L146.554,172.93C146.554,164.165 153.659,157.059 162.424,157.059C184.986,157.059 223.628,157.059 223.628,157.059C231.022,156.922 237.065,150.879 237.202,143.485C237.287,141.903 237.107,140.31 236.675,138.781C235.525,135.754 234.924,132.537 234.924,129.299C234.924,117.57 242.676,107.15 253.909,103.785C256.936,102.625 260.164,102.034 263.402,102.034C275.13,102.034 285.551,109.786 288.916,121.019C289.981,124.036 290.519,127.221 290.487,130.417C290.477,133.613 289.949,136.787 288.916,139.815C288.441,141.249 288.188,142.747 288.188,144.265C288.188,149.83 291.511,154.855 296.526,157.084L345.95,157.084L345.95,157.119L465.794,157.119C473.198,157.245 479.252,163.3 479.379,170.704L479.379,212.367C479.273,215.668 477.976,218.832 475.719,221.247C473.177,224.391 469.348,226.215 465.309,226.215C462.018,226.215 458.854,225.002 456.396,222.819C451.291,218.199 444.647,215.647 437.77,215.647C422.529,215.647 409.999,228.177 409.999,243.418C409.999,250.052 412.382,256.486 416.707,261.517C427.075,272.592 444.657,273.298 455.879,263.089C458.158,260.631 461.406,259.292 464.76,259.429C472.428,259.302 478.915,265.314 479.389,272.961L479.389,463.251C479.263,470.655 473.209,476.709 465.804,476.836L388.968,476.836C385.487,476.836 382.133,475.528 379.57,473.176C376.606,470.634 374.898,466.911 374.898,463.008C374.898,459.612 376.195,456.332 378.515,453.853C383.241,448.738 385.867,442.019 385.867,435.058C385.867,419.849 373.347,407.339 358.149,407.339C342.939,407.339 330.43,419.849 330.43,435.058C330.43,442.019 333.046,448.738 337.771,453.853C340.229,456.131 341.568,459.38 341.431,462.734C341.558,470.412 335.514,476.92 327.846,477.363L160.239,477.363C152.834,477.236 146.78,471.182 146.654,463.778L146.654,433.793Z" style="fill:rgb(58,23,103);fill-rule:nonzero;"/>
        </g>
    </g>
</svg>
