<?xml version="1.0" encoding="UTF-8" standalone="no"?>
<!DOCTYPE svg PUBLIC "-//W3C//DTD SVG 1.1//EN" "http://www.w3.org/Graphics/SVG/1.1/DTD/svg11.dtd">
<svg width="100%" height="100%" viewBox="0 0 512 512" version="1.1" xmlns="http://www.w3.org/2000/svg" xmlns:xlink="http://www.w3.org/1999/xlink" xml:space="preserve" xmlns:serif="http://www.serif.com/" style="fill-rule:evenodd;clip-rule:evenodd;stroke-linejoin:round;stroke-miterlimit:2;">
    <g id="Layer-1" serif:id="Layer 1">
        <g transform="matrix(1.18519,0,0,1.18519,0,0)">
            <rect x="0" y="0" width="432" height="432" style="fill:rgb(226,26,35);"/>
        </g>
        <g transform="matrix(1.18519,0,0,1.18519,0,0)">
            <path d="M142.7,139.66L136.1,69.93L112.57,139.66L89.57,139.66L64.84,69.78L59.76,139.66L35.22,139.66L46.22,34.91L76.22,34.91L102.41,107L127,34.91L157,34.91L168.68,139.66L142.7,139.66Z" style="fill:white;fill-rule:nonzero;"/>
        </g>
        <g transform="matrix(1.18519,0,0,1.18519,0,0)">
            <path d="M221.7,142C196.42,142 180.88,123.79 180.88,101C180.88,77.13 199.4,59.39 222.96,59.39C240.39,59.39 249.96,67.55 251.07,69.13L241.18,84.36C236.845,81.456 231.784,79.821 226.57,79.64C214.32,79.64 206.16,88.64 206.16,100.53C206.16,112.94 212.28,121.73 225.16,121.73C234.43,121.73 242.28,116.39 242.75,116.08L252.33,131.78C251.86,132.12 241.18,142 221.7,142Z" style="fill:white;fill-rule:nonzero;"/>
        </g>
        <g transform="matrix(1.18519,0,0,1.18519,0,0)">
            <path d="M95.9,396.78L95.9,353L61.07,353L61.07,396.81L35.23,396.81L35.23,292L61.07,292L61.07,332.05L95.9,332.05L95.9,292L121.75,292L121.75,396.78L95.9,396.78Z" style="fill:white;fill-rule:nonzero;"/>
        </g>
        <g transform="matrix(1.18519,0,0,1.18519,0,0)">
            <path d="M156.3,317.59C148.937,317.536 142.91,311.463 142.91,304.1C142.91,304.067 142.91,304.033 142.91,304C143.077,296.812 149.036,290.99 156.226,290.99C163.534,290.99 169.546,297.003 169.546,304.31C169.546,311.59 163.579,317.59 156.3,317.63L156.3,317.59ZM143.54,396.78L143.54,329.55L168.75,329.55L168.75,396.78L143.54,396.78Z" style="fill:white;fill-rule:nonzero;"/>
        </g>
        <g transform="matrix(1.18519,0,0,1.18519,0,0)">
            <rect x="190.37" y="292" width="24" height="104.78" style="fill:white;fill-rule:nonzero;"/>
        </g>
        <g transform="matrix(1.18519,0,0,1.18519,0,0)">
            <rect x="236.12" y="292" width="24" height="104.78" style="fill:white;fill-rule:nonzero;"/>
        </g>
        <g transform="matrix(1.18519,0,0,1.18519,0,0)">
            <path d="M82.34,269.89C50.34,269.89 27.52,249.15 27.52,215.7C27.52,180.84 51.52,159.79 84.06,159.79C108.06,159.79 118.61,169.69 120.97,172.04L109.82,188.69C102.667,183.63 94.08,180.987 85.32,181.15C66.95,181.15 53.6,193.56 53.6,214.29C53.6,237.69 68.52,248.53 85.01,248.53C89.745,248.601 94.464,247.964 99.01,246.64L99.01,231.57L80,231.57L80,212.88L121.77,212.88L121.77,258.42C120.5,259.21 108.41,269.89 82.34,269.89Z" style="fill:white;fill-rule:nonzero;"/>
        </g>
        <g transform="matrix(1.18519,0,0,1.18519,0,0)">
            <path d="M376.21,265.34L350.6,265.34L337.88,217.34L326.26,265.34L301.61,265.34L279.31,187.45L303.18,187.45L315.43,237.7L328.31,187.45L349.51,187.45L362.39,237.7L374.16,187.45L397.09,187.45L376.21,265.34Z" style="fill:white;fill-rule:nonzero;"/>
        </g>
        <g transform="matrix(1.18519,0,0,1.18519,0,0)">
            <path d="M189,205.66C180.867,205.476 173.201,209.548 168.8,216.39L168.8,265.65L143.54,265.65L143.54,187.34L164.38,187.34L164.38,197.76C164.85,196.98 174.38,184.98 190.49,184.98C190.49,184.98 191.55,184.98 192.16,185.06C192.77,185.14 193.65,185.27 193.65,185.27L189,205.66Z" style="fill:white;fill-rule:nonzero;"/>
        </g>
        <g transform="matrix(1.18519,0,0,1.18519,0,0)">
            <path d="M248.26,266L248.26,259.37C242.105,264.671 234.273,267.636 226.15,267.74C210.36,267.74 200.72,257.16 200.72,242.15C200.72,217.55 235.63,215.42 243.85,215.42L245.58,215.42C245.58,212.89 246.23,208.16 243.68,206.14C242.29,205.03 239.9,203.61 234.36,203.61C228.844,203.705 223.383,204.719 218.2,206.61C216.74,207.13 215.5,207.61 214.56,208.05L206.81,192.75C208.102,191.966 209.438,191.255 210.81,190.62C218.609,187.103 227.085,185.335 235.64,185.44C247.64,185.44 256.64,188.44 262.8,194.6C269.6,201.39 269.12,210.55 269.12,220.19L269.12,266L248.26,266ZM245.89,229.36C239.89,229.36 228.83,229.04 224.25,233.62C222.48,235.364 221.509,237.766 221.57,240.25C221.57,247.83 227.26,249.73 231.36,249.73C236.54,249.775 241.612,248.232 245.89,245.31L245.89,229.36Z" style="fill:white;fill-rule:nonzero;"/>
        </g>
    </g>
</svg>
