<?xml version="1.0" encoding="UTF-8" standalone="no"?>
<!DOCTYPE svg PUBLIC "-//W3C//DTD SVG 1.1//EN" "http://www.w3.org/Graphics/SVG/1.1/DTD/svg11.dtd">
<svg width="100%" height="100%" viewBox="0 0 46 46" version="1.1" xmlns="http://www.w3.org/2000/svg" xmlns:xlink="http://www.w3.org/1999/xlink" xml:space="preserve" xmlns:serif="http://www.serif.com/" style="fill-rule:evenodd;clip-rule:evenodd;stroke-linejoin:round;stroke-miterlimit:2;">
    <path d="M21.108,36.667L28.595,36.667C28.436,38.704 26.756,40.236 24.775,40.181C22.803,40.126 21.143,38.545 21.108,36.667ZM28.641,33.391L21.106,33.391L21.106,24.19C21.915,24.406 22.702,24.696 23.515,24.822C28.128,25.536 32.263,21.627 31.849,16.977C31.566,13.81 29.224,11.098 26.195,10.43C22.97,9.72 19.762,11.124 18.138,13.971C17.568,14.971 17.218,16.048 17.212,17.205C17.194,20.673 17.196,24.141 17.19,27.609C17.19,27.841 17.19,28.074 17.19,28.357L13.194,28.357C13.194,27.292 13.178,26.229 13.202,25.168C13.212,24.748 13.095,24.453 12.767,24.174C11.853,23.4 10.98,22.576 10.069,21.797C9.79,21.558 9.755,21.364 9.904,21.036C11.193,18.194 12.424,15.325 13.751,12.502C15.937,7.854 21.143,5.139 26.155,5.964C31.39,6.825 35.426,10.944 36.084,16.096C36.751,21.317 34.001,26.25 29.189,28.422C28.78,28.607 28.618,28.812 28.629,29.272C28.662,30.618 28.641,31.966 28.641,33.391Z" style="fill:rgb(70,29,124);fill-rule:nonzero;"/>
    <g transform="matrix(-0.160557,-0.000717294,-0.000717294,0.160557,24.5361,21.1107)">
        <path d="M0.354,-44.179C-11.934,-44.218 -21.819,-34.559 -21.995,-22.34C-22.172,-10.121 -12.049,-0.038 0.354,-0.083C12.708,-0.127 22.318,-9.766 22.346,-22.142C22.374,-34.456 12.711,-44.14 0.354,-44.179" style="fill:rgb(70,29,124);fill-rule:nonzero;"/>
    </g>
    <g transform="matrix(-0.0757716,-0.000338512,-0.000338512,0.0757716,14.571,19.2673)">
        <path d="M0.354,-44.179C-11.934,-44.218 -21.819,-34.559 -21.995,-22.34C-22.172,-10.121 -12.049,-0.038 0.354,-0.083C12.708,-0.127 22.318,-9.766 22.346,-22.142C22.374,-34.456 12.711,-44.14 0.354,-44.179" style="fill:rgb(253,208,35);fill-rule:nonzero;"/>
    </g>
</svg>
