<?xml version="1.0" encoding="UTF-8" standalone="no"?>
<!DOCTYPE svg PUBLIC "-//W3C//DTD SVG 1.1//EN" "http://www.w3.org/Graphics/SVG/1.1/DTD/svg11.dtd">
<svg width="100%" height="100%" viewBox="0 0 46 46" version="1.1" xmlns="http://www.w3.org/2000/svg" xmlns:xlink="http://www.w3.org/1999/xlink" xml:space="preserve" xmlns:serif="http://www.serif.com/" style="fill-rule:evenodd;clip-rule:evenodd;stroke-linejoin:round;stroke-miterlimit:2;">
    <g id="Layer-1" serif:id="Layer 1" transform="matrix(0.214912,0,0,0.214912,5.35432,-0.000114444)">
        <g transform="matrix(4.65307,0,0,4.65307,-24.914,0.000532515)">
            <path d="M46,4.677C46,2.096 43.904,0 41.323,0L4.677,0C2.096,0 0,2.096 0,4.677L0,41.322C0,43.904 2.096,45.999 4.677,45.999L41.323,45.999C43.904,45.999 46,43.904 46,41.322L46,4.677Z" style="fill:rgb(32,81,104);"/>
        </g>
        <g transform="matrix(0.887731,0,0,0.887731,9.21806,12.0151)">
            <g transform="matrix(1,0,0,1,29.9519,84.1034)">
                <path d="M0,-0.689C5.756,-0.653 10.494,-5.321 10.48,-11.013C10.467,-16.565 5.951,-21.139 0.354,-21.271C-5.475,-21.407 -10.17,-16.934 -10.253,-11.164C-10.336,-5.358 -5.8,-0.725 0,-0.689M87.288,87.636L40.358,87.636L40.358,30.327C45.396,31.677 50.299,33.482 55.36,34.266C84.093,38.713 109.85,14.364 107.266,-14.592C105.506,-34.32 90.919,-51.212 72.055,-55.368C51.966,-59.794 31.989,-51.05 21.871,-33.314C18.32,-27.09 16.141,-20.383 16.104,-13.172C15.996,8.426 16.006,30.023 15.971,51.622C15.969,53.072 15.971,54.523 15.971,56.283L-8.918,56.283C-8.918,49.649 -9.02,43.032 -8.867,36.421C-8.807,33.808 -9.533,31.968 -11.58,30.233C-17.274,25.409 -22.706,20.275 -28.38,15.427C-30.121,13.94 -30.34,12.731 -29.411,10.683C-21.383,-7.016 -13.718,-24.882 -5.448,-42.465C8.167,-71.415 40.588,-88.325 71.805,-83.189C104.407,-77.826 129.55,-52.168 133.646,-20.081C137.798,12.439 120.671,43.163 90.701,56.689C88.154,57.839 87.143,59.116 87.214,61.979C87.421,70.364 87.288,78.758 87.288,87.636" style="fill:white;fill-rule:nonzero;"/>
            </g>
            <g transform="matrix(-0.99999,-0.00446748,-0.00446748,0.99999,91.6736,95.2544)">
                <path d="M0.354,-44.179C-11.934,-44.218 -21.819,-34.559 -21.995,-22.34C-22.172,-10.121 -12.049,-0.038 0.354,-0.083C12.708,-0.127 22.318,-9.766 22.346,-22.142C22.374,-34.456 12.711,-44.14 0.354,-44.179" style="fill:rgb(109,184,193);fill-rule:nonzero;"/>
            </g>
            <g transform="matrix(1,0,0,1,70.3244,214.371)">
                <path d="M0,-22.231L46.628,-22.231C45.64,-9.539 35.178,0 22.836,-0.341C10.554,-0.682 0.215,-10.53 0,-22.231" style="fill:white;fill-rule:nonzero;"/>
            </g>
        </g>
    </g>
</svg>
