<?xml version="1.0" encoding="UTF-8" standalone="no"?>
<!DOCTYPE svg PUBLIC "-//W3C//DTD SVG 1.1//EN" "http://www.w3.org/Graphics/SVG/1.1/DTD/svg11.dtd">
<svg width="100%" height="100%" viewBox="0 0 46 46" version="1.1" xmlns="http://www.w3.org/2000/svg" xmlns:xlink="http://www.w3.org/1999/xlink" xml:space="preserve" xmlns:serif="http://www.serif.com/" style="fill-rule:evenodd;clip-rule:evenodd;stroke-linejoin:round;stroke-miterlimit:2;">
    <g id="g11569" transform="matrix(0.21903,0,0,0.21903,-28.5267,-65.3198)">
        <path id="path11545" d="M158.394,459.258L216.216,492.658L233.095,502.355C238.123,505.228 243.869,506.844 249.975,506.844C256.08,506.844 262.006,505.228 266.854,502.355L312.286,476.138C322.342,470.212 329.165,459.258 329.165,446.868L329.165,426.576L290.019,402.334L216.216,445.072L191.794,459.258C186.946,461.952 181.199,463.748 175.094,463.748C168.989,463.568 163.242,462.131 158.394,459.258Z" style="fill:url(#_Linear1);"/>
        <path id="path11560" d="M329.165,359.776L329.165,446.15C329.165,433.58 322.342,422.626 312.286,416.7L288.762,403.053L216.036,361.213L216.036,314.165L234.711,303.391C239.38,301.057 244.588,299.62 250.154,299.62C256.26,299.62 262.186,301.236 267.034,304.109L311.388,329.788C322.162,335.714 329.165,347.027 329.165,359.776Z" style="fill:url(#_Linear2);"/>
        <path id="path11567" d="M158.394,459.258C148.158,453.512 141.335,442.558 141.335,429.988L141.335,376.835C141.335,364.984 147.44,354.569 156.598,348.463L175.453,337.689L231.12,305.546C222.141,311.651 216.036,322.066 216.036,333.918L216.036,445.252L191.614,459.438C186.766,462.311 181.02,463.927 174.914,463.927C168.989,463.568 163.242,462.131 158.394,459.258Z" style="fill:url(#_Linear3);"/>
    </g>
    <defs>
        <linearGradient id="_Linear1" x1="0" y1="0" x2="1" y2="0" gradientUnits="userSpaceOnUse" gradientTransform="matrix(59.4899,-94.3086,94.3086,59.4899,211.935,508.383)"><stop offset="0" style="stop-color:rgb(198,222,137);stop-opacity:1"/><stop offset="0.11" style="stop-color:rgb(198,222,137);stop-opacity:1"/><stop offset="0.31" style="stop-color:rgb(146,188,113);stop-opacity:1"/><stop offset="0.63" style="stop-color:rgb(83,148,83);stop-opacity:1"/><stop offset="0.87" style="stop-color:rgb(41,126,67);stop-opacity:1"/><stop offset="1" style="stop-color:rgb(17,119,61);stop-opacity:1"/></linearGradient>
        <linearGradient id="_Linear2" x1="0" y1="0" x2="1" y2="0" gradientUnits="userSpaceOnUse" gradientTransform="matrix(113.036,0,0,113.036,216.117,372.953)"><stop offset="0" style="stop-color:rgb(17,119,61);stop-opacity:1"/><stop offset="0.23" style="stop-color:rgb(17,119,61);stop-opacity:1"/><stop offset="0.34" style="stop-color:rgb(34,124,65);stop-opacity:1"/><stop offset="0.5" style="stop-color:rgb(66,138,76);stop-opacity:1"/><stop offset="0.7" style="stop-color:rgb(110,164,96);stop-opacity:1"/><stop offset="0.93" style="stop-color:rgb(173,205,125);stop-opacity:1"/><stop offset="1" style="stop-color:rgb(198,222,137);stop-opacity:1"/></linearGradient>
        <linearGradient id="_Linear3" x1="0" y1="0" x2="1" y2="0" gradientUnits="userSpaceOnUse" gradientTransform="matrix(0.281926,-89.8355,89.8355,0.281926,185.992,427.393)"><stop offset="0" style="stop-color:rgb(17,119,61);stop-opacity:1"/><stop offset="1" style="stop-color:rgb(198,222,137);stop-opacity:1"/></linearGradient>
    </defs>
</svg>
