<svg id="Layer_1" data-name="Layer 1" xmlns="http://www.w3.org/2000/svg" viewBox="0 0 344.96 500.33"><title>piazza</title><path d="M83,181.11C83.53,90.31,144.2,17,224.23,8,323.74-3.36,397.63,45.26,423,138.75,448.7,233.63,371.55,339,272.35,342.81a259.39,259.39,0,0,1-69-6.55c-20.73-4.92-43.24-14-72.07-38.31V506.67H83ZM252.31,289.3c63,7.62,118.19-56,114.44-111C362.43,115,315.52,63.06,253.33,62.7c-61.91-.37-114.87,52.25-115,114.2C138.25,241.78,186.09,289,252.31,289.3Z" transform="translate(-83.01 -6.33)" style="fill:#3a7bac"/></svg>