<?xml version="1.0" encoding="UTF-8" standalone="no"?><!DOCTYPE svg PUBLIC "-//W3C//DTD SVG 1.1//EN" "http://www.w3.org/Graphics/SVG/1.1/DTD/svg11.dtd"><svg width="100%" height="100%" viewBox="0 0 8892 8892" version="1.1" xmlns="http://www.w3.org/2000/svg" xmlns:xlink="http://www.w3.org/1999/xlink" xml:space="preserve" xmlns:serif="http://www.serif.com/" style="fill-rule:evenodd;clip-rule:evenodd;stroke-linejoin:round;stroke-miterlimit:2;"><g id="Layer-1" serif:id="Layer 1"><path d="M4164.19,2998.31l227.846,272.151c12.658,16.877 40.084,6.329 40.084,-14.768l0,-594.933c-69.619,126.581 -160.336,238.395 -267.93,337.55Z" style="fill:#fff;fill-rule:nonzero;"/><path d="M6809.74,7897.01l-0,-4240.48l-780.586,-0l0,2628.68c0,1012.65 -672.991,1833.32 -1702.52,1826.99c-1012.65,-8.439 -1658.22,-871.302 -1658.22,-1883.95l-0,-2016.86c-0,-305.906 -248.944,-554.849 -554.849,-554.849l-225.737,-0l0,2628.68c0,1462.02 1056.95,2645.55 2542.18,2605.47c689.869,-18.988 1149.78,-314.344 1601.26,-774.257c10.548,189.872 46.413,335.441 187.762,495.777c265.821,299.577 803.793,253.163 983.116,-46.413c-200.42,-35.864 -381.854,-198.311 -392.402,-668.772Z" style="fill:#0072b1;fill-rule:nonzero;"/><path d="M2119.9,1951.9c0,550.629 447.255,997.884 997.884,997.884c550.629,-0 997.884,-447.255 997.884,-997.884c-0,-550.629 -447.255,-997.884 -997.884,-997.884c-550.629,0 -997.884,447.255 -997.884,997.884Zm381.854,-0c0,-339.66 274.26,-613.92 613.92,-613.92c339.661,-0 613.92,274.26 613.92,613.92c0,339.66 -274.259,613.92 -613.92,613.92c-337.55,-0 -613.92,-274.26 -613.92,-613.92Z" style="fill:#fff;fill-rule:nonzero;"/><circle cx="3115.67" cy="1951.9" r="613.92" style="fill:#0072b1;"/><path d="M6921.56,510.986c71.73,-84.388 75.949,-189.872 75.949,-303.795c0,-145.569 -16.877,-238.395 -128.691,-191.982c0,-0 -1708.85,734.172 -2525.3,734.172c-816.45,0 -2525.3,-736.282 -2525.3,-736.282c-111.814,-44.303 -128.692,48.523 -128.692,191.982c0,113.923 4.22,219.408 75.949,303.795l356.538,424.048c-263.711,259.492 -428.267,620.249 -428.267,1018.98c-0,784.805 639.236,1424.04 1424.04,1424.04c312.234,0 601.262,-103.375 835.438,-274.26l314.343,386.074c18.988,23.206 48.523,31.645 73.84,31.645c25.316,0 54.852,-8.439 73.839,-31.645l314.344,-386.074c234.175,170.885 523.203,274.26 835.437,274.26c784.805,0 1424.04,-639.236 1424.04,-1424.04c0,-398.732 -164.555,-759.489 -430.376,-1016.87l362.866,-424.048Zm-3805.88,2438.8c-550.629,-0 -997.883,-447.255 -997.883,-997.884c-0,-550.629 447.254,-997.884 997.883,-997.884c550.63,0 997.884,447.255 997.884,997.884c0,550.629 -447.254,997.884 -997.884,997.884Zm3451.45,-997.884c0,550.629 -447.254,997.884 -997.883,997.884c-550.63,-0 -997.884,-447.255 -997.884,-997.884c-0,-550.629 447.254,-997.884 997.884,-997.884c550.629,0 997.883,447.255 997.883,997.884Z" style="fill:#0072b1;fill-rule:nonzero;"/><path d="M5569.24,954.021c-550.63,0 -997.884,447.255 -997.884,997.884c-0,550.629 447.254,997.884 997.884,997.884c550.629,-0 997.883,-447.255 997.883,-997.884c0,-550.629 -447.254,-997.884 -997.883,-997.884Zm-0,1611.8c-339.661,-0 -613.92,-274.26 -613.92,-613.92c-0,-339.66 274.259,-613.92 613.92,-613.92c339.66,-0 613.92,274.26 613.92,613.92c-0,339.66 -274.26,613.92 -613.92,613.92Z" style="fill:#fff;fill-rule:nonzero;"/><circle cx="5569.24" cy="1951.9" r="613.92" style="fill:#0072b1;"/><path d="M4092.46,2964.56l210.969,253.163c12.658,16.878 40.084,6.329 40.084,-14.768l0,-529.532c-71.729,107.594 -156.117,204.64 -251.053,291.137Z" style="fill:#fff;fill-rule:nonzero;"/></g></svg>