<?xml version="1.0" encoding="UTF-8" standalone="no"?>
<!DOCTYPE svg PUBLIC "-//W3C//DTD SVG 1.1//EN" "http://www.w3.org/Graphics/SVG/1.1/DTD/svg11.dtd">
<svg width="100%" height="100%" viewBox="0 0 512 512" version="1.1" xmlns="http://www.w3.org/2000/svg" xmlns:xlink="http://www.w3.org/1999/xlink" xml:space="preserve" xmlns:serif="http://www.serif.com/" style="fill-rule:evenodd;clip-rule:evenodd;stroke-linejoin:round;stroke-miterlimit:2;">
    <g transform="matrix(0.686164,0,0,0.686164,80.342,80.342)">
        <g transform="matrix(0.86641,0,0,0.86641,34.1989,34.1989)">
            <path d="M110.999,42.487C93.174,42.487 78.686,56.975 78.686,74.8L78.686,437.16C78.686,454.985 93.174,469.472 110.999,469.472L401.042,469.472C418.826,469.472 433.314,454.985 433.314,437.16L433.314,74.8C433.314,56.975 418.826,42.487 401.042,42.487L110.999,42.487ZM401.082,512L110.999,512C69.733,512 36.159,478.426 36.159,437.2L36.159,74.8C36.159,33.534 69.733,0 110.999,0L401.042,0C442.308,0 475.841,33.574 475.841,74.8L475.841,437.16C475.882,478.426 442.308,512 401.082,512" style="fill:rgb(70,29,124);fill-rule:nonzero;"/>
        </g>
        <g transform="matrix(0.906756,0,0,0.906756,23.8704,23.8704)">
            <path d="M383.054,145.286C383.054,134.135 372.31,125.019 358.758,124.327L358.758,124.246L154.951,124.246C140.626,124.246 129.028,133.647 129.028,145.286C129.028,156.925 140.667,166.326 154.951,166.326C155.48,166.326 358.229,166.285 358.758,166.285L358.799,166.285C372.351,165.593 383.054,156.477 383.054,145.286" style="fill:rgb(70,29,124);fill-rule:nonzero;"/>
        </g>
        <g transform="matrix(0.906756,0,0,0.906756,23.8704,23.8704)">
            <path d="M383.054,364.272C383.054,353.122 372.31,344.006 358.758,343.314L358.758,343.232L154.951,343.232C140.626,343.232 129.028,352.633 129.028,364.272C129.028,375.912 140.667,385.312 154.951,385.312C155.48,385.312 358.229,385.272 358.758,385.272L358.799,385.272C372.351,384.539 383.054,375.423 383.054,364.272" style="fill:rgb(70,29,124);fill-rule:nonzero;"/>
        </g>
        <g transform="matrix(0.906756,0,0,0.906756,23.8704,23.8704)">
            <path d="M383.054,255.98C383.054,244.829 372.31,235.713 358.758,235.021L358.758,234.94L154.951,234.94C140.626,234.94 129.028,244.341 129.028,255.98C129.028,267.619 140.667,277.02 154.951,277.02C155.48,277.02 358.229,276.979 358.758,276.979L358.799,276.979C372.351,276.246 383.054,267.13 383.054,255.98" style="fill:rgb(232,32,55);fill-rule:nonzero;"/>
        </g>
    </g>
</svg>
