<?xml version="1.0" encoding="utf-8"?>
<!-- Generator: Adobe Illustrator 26.3.1, SVG Export Plug-In . SVG Version: 6.00 Build 0)  -->
<svg version="1.1" id="Layer_1" xmlns="http://www.w3.org/2000/svg" xmlns:xlink="http://www.w3.org/1999/xlink" x="0px" y="0px"
	 viewBox="0 0 50 50" style="enable-background:new 0 0 50 50;" xml:space="preserve">
<style type="text/css">
	.st0{fill:#39AAE1;}
</style>
<g>
	<circle class="st0" cx="24.93" cy="25.07" r="10.33"/>
	<path class="st0" d="M47.69,0H2.31C1.03,0,0,1.03,0,2.31v45.18L12.66,34.7c-2.06-2.64-3.29-5.95-3.29-9.56
		c0-8.61,6.98-15.58,15.58-15.58s15.58,6.98,15.58,15.58c0,8.61-6.98,15.58-15.58,15.58c-3.06,0-5.9-0.89-8.31-2.42L5.06,50h42.63
		c1.28,0,2.31-1.03,2.31-2.31V2.31C50,1.03,48.97,0,47.69,0z"/>
</g>
</svg>
