<?xml version="1.0" encoding="UTF-8" standalone="no"?><!DOCTYPE svg PUBLIC "-//W3C//DTD SVG 1.1//EN" "http://www.w3.org/Graphics/SVG/1.1/DTD/svg11.dtd"><svg width="100%" height="100%" viewBox="0 0 8892 8892" version="1.1" xmlns="http://www.w3.org/2000/svg" xmlns:xlink="http://www.w3.org/1999/xlink" xml:space="preserve" xmlns:serif="http://www.serif.com/" style="fill-rule:evenodd;clip-rule:evenodd;stroke-linejoin:round;stroke-miterlimit:2;"><g><path d="M2266.24,4384.55c-735.728,-942.249 -1458.55,-1884.5 -2194.28,-2839.65c-103.26,-129.075 -103.26,-116.168 51.63,-90.353c400.133,77.446 800.266,154.891 1187.49,232.336c12.908,-0 25.815,12.907 25.815,25.815c322.688,877.71 658.283,1755.42 980.971,2633.13c129.075,296.873 129.075,283.965 -51.63,38.723" style="fill:#0e848c;fill-rule:nonzero;"/><path d="M2718.01,4862.13c-516.301,-1394.01 -980.971,-2684.76 -1535.99,-4156.22c-141.983,-374.318 -180.705,-361.411 180.705,-167.798c1226.21,645.376 2465.34,1303.66 3691.55,1961.94c116.168,64.537 129.076,51.63 38.723,141.983c-709.913,774.45 -1419.83,1535.99 -2129.74,2310.44c-154.891,167.798 -167.798,116.168 -245.243,-90.352" style="fill:#219097;fill-rule:nonzero;"/><path d="M4744.48,6101.25c-929.341,722.82 -1858.68,1445.64 -2800.93,2168.46c-425.948,322.687 -348.503,296.872 -167.798,-154.891c387.226,-929.34 761.544,-1858.68 1148.77,-2788.02c12.907,-12.908 25.815,-25.815 51.63,-25.815c580.838,232.335 1174.58,464.67 1755.42,697.006c103.26,38.722 103.26,25.815 12.907,103.26" style="fill:#339ba1;fill-rule:nonzero;"/><path d="M4860.65,5856.01c-567.931,-219.428 -1135.86,-451.763 -1703.79,-671.191c-154.89,-64.537 -129.075,-51.63 -12.907,-167.797c697.005,-748.636 1394.01,-1510.18 2091.02,-2258.82c141.982,-154.89 116.167,-167.798 90.352,38.723c-141.982,1019.69 -283.965,2026.48 -400.133,3046.17c-12.907,12.908 -38.722,25.815 -64.537,12.908" style="fill:#4ba8ad;fill-rule:nonzero;"/><path d="M7080.74,3803.72c-555.023,271.057 -1122.95,542.115 -1677.98,813.173c-193.612,90.352 -167.797,90.352 -141.982,-116.168c77.445,-529.208 141.982,-1058.42 219.427,-1587.62c25.815,-206.52 0,-193.612 193.613,-90.352c464.67,258.15 942.248,503.393 1406.92,761.543c245.242,129.075 258.15,103.26 -0,219.428" style="fill:#0e848c;fill-rule:nonzero;"/><path d="M7739.03,1106.05c141.982,167.797 283.965,335.595 425.948,503.393c12.907,12.907 12.907,38.722 -12.908,51.63c-167.797,77.445 -322.688,154.89 -490.485,219.427c-90.353,38.723 -77.445,38.723 -64.538,-51.63c12.908,-232.335 38.723,-477.578 51.63,-709.913c12.908,-116.167 0,-116.167 90.353,-12.907" style="fill:#0e848c;fill-rule:nonzero;"/><path d="M8294.05,1377.1c141.982,-12.907 283.965,-38.722 438.855,-51.63c193.613,-25.815 219.428,-38.722 25.815,51.63c-116.167,64.538 -232.335,116.168 -361.41,180.706c-12.908,12.907 -38.723,-0 -38.723,-12.908c-25.815,-25.815 -51.63,-64.538 -77.445,-90.353c-64.537,-77.445 -77.445,-77.445 12.908,-77.445" style="fill:#0e848c;fill-rule:nonzero;"/><path d="M6332.11,925.339c374.318,-38.722 761.543,-77.445 1135.86,-116.167c25.815,-0 25.815,12.907 25.815,25.815c-64.537,826.081 -129.075,1639.25 -193.613,2478.24c-12.907,206.52 0,193.613 -180.705,90.353c-722.82,-387.226 -1445.64,-787.359 -2181.37,-1174.58c-206.52,-116.167 -245.243,-77.445 -38.723,-232.335c464.671,-361.41 942.249,-709.913 1406.92,-1071.32l25.815,0" style="fill:#0e848c;fill-rule:nonzero;"/></g></svg>