<?xml version="1.0" encoding="UTF-8" standalone="no"?>
<!DOCTYPE svg PUBLIC "-//W3C//DTD SVG 1.1//EN" "http://www.w3.org/Graphics/SVG/1.1/DTD/svg11.dtd">
<svg width="100%" height="100%" viewBox="0 0 512 512" version="1.1" xmlns="http://www.w3.org/2000/svg" xmlns:xlink="http://www.w3.org/1999/xlink" xml:space="preserve" xmlns:serif="http://www.serif.com/" style="fill-rule:evenodd;clip-rule:evenodd;stroke-linejoin:round;stroke-miterlimit:2;">
    <g transform="matrix(4.62533,0,0,4.62533,-3234.21,103.943)">
        <path d="M737.7,32.4C732,25.1 726.4,17.8 720.7,10.4C719.9,9.4 719.9,9.5 721.1,9.7C724.2,10.3 727.3,10.9 730.3,11.5C730.4,11.5 730.5,11.6 730.5,11.7C733,18.5 735.6,25.3 738.1,32.1C739.1,34.4 739.1,34.3 737.7,32.4" style="fill:rgb(93,39,165);fill-rule:nonzero;"/>
    </g>
    <g transform="matrix(4.62533,0,0,4.62533,-3234.21,103.943)">
        <path d="M741.2,36.1C737.2,25.3 733.6,15.3 729.3,3.9C728.2,1 727.9,1.1 730.7,2.6C740.2,7.6 749.8,12.7 759.3,17.8C760.2,18.3 760.3,18.2 759.6,18.9C754.1,24.9 748.6,30.8 743.1,36.8C741.9,38.1 741.8,37.7 741.2,36.1" style="fill:rgb(70,29,124);fill-rule:nonzero;"/>
    </g>
    <g transform="matrix(4.62533,0,0,4.62533,-3234.21,103.943)">
        <path d="M756.9,45.7C749.7,51.3 742.5,56.9 735.2,62.5C731.9,65 732.5,64.8 733.9,61.3C736.9,54.1 739.8,46.9 742.8,39.7C742.9,39.6 743,39.5 743.2,39.5C747.7,41.3 752.3,43.1 756.8,44.9C757.6,45.2 757.6,45.1 756.9,45.7" style="fill:rgb(117,48,207);fill-rule:nonzero;"/>
    </g>
    <g transform="matrix(4.62533,0,0,4.62533,-3234.21,103.943)">
        <path d="M757.8,43.8C753.4,42.1 749,40.3 744.6,38.6C743.4,38.1 743.6,38.2 744.5,37.3C749.9,31.5 755.3,25.6 760.7,19.8C761.8,18.6 761.6,18.5 761.4,20.1C760.3,28 759.2,35.8 758.3,43.7C758.2,43.8 758,43.9 757.8,43.8" style="fill:rgb(93,39,165);fill-rule:nonzero;"/>
    </g>
    <g transform="matrix(4.62533,0,0,4.62533,-3234.21,103.943)">
        <path d="M775,27.9C770.7,30 766.3,32.1 762,34.2C760.5,34.9 760.7,34.9 760.9,33.3C761.5,29.2 762,25.1 762.6,21C762.8,19.4 762.6,19.5 764.1,20.3C767.7,22.3 771.4,24.2 775,26.2C776.9,27.2 777,27 775,27.9" style="fill:rgb(117,48,207);fill-rule:nonzero;"/>
    </g>
    <g transform="matrix(4.62533,0,0,4.62533,-3234.21,103.943)">
        <path d="M780.1,7C781.2,8.3 782.3,9.6 783.4,10.9C783.5,11 783.5,11.2 783.3,11.3C782,11.9 780.8,12.5 779.5,13C778.8,13.3 778.9,13.3 779,12.6C779.1,10.8 779.3,8.9 779.4,7.1C779.5,6.2 779.4,6.2 780.1,7" style="fill:rgb(117,48,207);fill-rule:nonzero;"/>
    </g>
    <g transform="matrix(4.62533,0,0,4.62533,-3234.21,103.943)">
        <path d="M784.4,9.1C785.5,9 786.6,8.8 787.8,8.7C789.3,8.5 789.5,8.4 788,9.1C787.1,9.6 786.2,10 785.2,10.5C785.1,10.6 784.9,10.5 784.9,10.4C784.7,10.2 784.5,9.9 784.3,9.7C783.8,9.1 783.7,9.1 784.4,9.1" style="fill:rgb(93,39,165);fill-rule:nonzero;"/>
    </g>
    <g transform="matrix(4.62533,0,0,4.62533,-3234.21,103.943)">
        <path d="M769.2,5.6C772.1,5.3 775.1,5 778,4.7C778.2,4.7 778.2,4.8 778.2,4.9C777.7,11.3 777.2,17.6 776.7,24.1C776.6,25.7 776.7,25.6 775.3,24.8C769.7,21.8 764.1,18.7 758.4,15.7C756.8,14.8 756.5,15.1 758.1,13.9C761.7,11.1 765.4,8.4 769,5.6L769.2,5.6" style="fill:rgb(144,90,216);fill-rule:nonzero;"/>
    </g>
</svg>
