<?xml version="1.0" encoding="UTF-8" standalone="no"?><!DOCTYPE svg PUBLIC "-//W3C//DTD SVG 1.1//EN" "http://www.w3.org/Graphics/SVG/1.1/DTD/svg11.dtd"><svg width="100%" height="100%" viewBox="0 0 512 512" version="1.1" xmlns="http://www.w3.org/2000/svg" xmlns:xlink="http://www.w3.org/1999/xlink" xml:space="preserve" xmlns:serif="http://www.serif.com/" style="fill-rule:evenodd;clip-rule:evenodd;stroke-linejoin:round;stroke-miterlimit:2;"><g><g id="Layer-1" serif:id="Layer 1"><g><g><path d="M9.667,7.254c-0.112,1.116 0.626,1.918 1.082,2.806c18.27,35.565 36.603,71.096 54.757,106.72c1.72,3.375 3.59,4.578 7.445,4.546c25.141,-0.207 50.285,-0.066 75.427,-0.168c2.542,-0.01 3.752,0.804 4.856,3.069c32.89,67.484 65.859,134.929 98.817,202.378c0.497,1.017 1.019,2.02 1.536,3.043c1.124,-0.325 1.182,-1.342 1.546,-2.081c33.345,-67.642 66.692,-135.283 99.933,-202.976c1.308,-2.662 2.757,-3.456 5.646,-3.443c26.622,0.122 53.244,0.054 79.866,0.108c1.979,0.004 3.252,-0.302 4.296,-2.299c19.309,-36.947 38.711,-73.845 58.088,-110.756c0.154,-0.295 0.233,-0.631 0.348,-0.947l0.682,-0c1.898,0.997 3.722,2.185 5.711,2.942c2.613,0.996 2.627,2.185 1.395,4.529c-53.122,101.045 -106.17,202.128 -159.239,303.201c-32.051,61.046 -64.122,122.082 -96.156,183.137c-0.618,1.176 -1.587,2.233 -1.604,3.684l-0.683,-0c-1.041,-3.627 -3.13,-6.761 -4.83,-10.068c-36.558,-71.128 -73.163,-142.231 -109.745,-213.347c-45.832,-89.097 -91.651,-178.2 -137.484,-267.296c-0.358,-0.698 -0.83,-1.338 -1.249,-2.005l0,-0.682c3.183,-0.879 5.997,-2.558 8.876,-4.095l0.683,-0Z" style="fill:#0890c0;fill-rule:nonzero;"/></g><g><path d="M395.432,7.253c13.313,11.19 27.279,21.551 41.001,32.222c9.692,7.538 19.36,15.108 29.032,22.672c0.781,0.61 1.506,1.292 2.24,1.926c-0.473,0.988 -1.258,0.639 -1.851,0.627c-29.685,-0.573 -59.369,-1.201 -89.055,-1.72c-2.512,-0.044 -2.478,-0.845 -1.741,-2.76c1.751,-4.552 3.185,-9.231 5.059,-13.728c1.104,-2.651 -0.314,-3.015 -2.241,-3.542c-19.544,-5.34 -39.411,-8.921 -59.527,-11.265c-25.348,-2.955 -50.77,-4.162 -76.275,-3.596c-36.243,0.806 -72.115,4.463 -107.25,13.89c-2.659,0.713 -3.117,1.614 -2.104,4.049c1.917,4.605 3.506,9.345 5.399,13.96c0.913,2.225 0.608,2.983 -1.961,2.912c-5.571,-0.151 -11.148,-0.046 -16.723,-0.046l-75.383,0c1.773,-1.431 2.815,-2.317 3.904,-3.143c21.739,-16.487 43.486,-32.965 65.223,-49.455c1.261,-0.957 2.457,-2 3.683,-3.003l0.683,0c2.056,5.34 4.332,10.611 6.071,16.053c0.812,2.542 1.931,2.903 4.145,2.251c8.424,-2.479 16.991,-4.394 25.619,-5.973c17.866,-3.269 35.83,-5.688 53.976,-7.045c10.921,-0.817 21.847,-1.521 32.773,-1.819c17.941,-0.49 35.869,-0.113 53.813,1.143c17.145,1.201 34.163,3.101 51.084,5.98c13.22,2.25 26.249,5.345 39.093,9.213c0.987,0.297 2.079,1.107 2.876,-0.49c3.085,-6.175 5.411,-12.621 7.072,-19.313l1.365,0Z" style="fill:#f36e34;fill-rule:nonzero;"/></g></g></g></g></svg>