<?xml version="1.0" encoding="utf-8"?>
<!-- Generator: Adobe Illustrator 26.3.1, SVG Export Plug-In . SVG Version: 6.00 Build 0)  -->
<svg version="1.1" id="Layer_1" xmlns="http://www.w3.org/2000/svg" xmlns:xlink="http://www.w3.org/1999/xlink" x="0px" y="0px"
	 viewBox="0 0 50 50" style="enable-background:new 0 0 50 50;" xml:space="preserve">
<style type="text/css">
	.st0{fill:#39AAE1;}
</style>
<g>
	<path class="st0" d="M47.8,0H2.2C0.98,0,0,0.98,0,2.2v45.6C0,49.02,0.98,50,2.2,50h45.6c1.22,0,2.2-0.98,2.2-2.2V2.2
		C50,0.98,49.02,0,47.8,0z M12.76,33.42H9.56c-1.22,0-2.2-0.98-2.2-2.2v-20.8c0-1.22,0.98-2.2,2.2-2.2h1.68
		c0.11,0,0.21,0.01,0.31,0.03h18.87c1.22,0,2.2,0.98,2.2,2.2v3.19c0,0.06-0.04,0.1-0.1,0.1H15.06c-1.22,0-2.2,0.98-2.2,2.2v17.37
		C12.86,33.37,12.81,33.42,12.76,33.42z M42.98,40.91c0,1.22-0.98,2.2-2.2,2.2H20.17c-1.22,0-2.2-0.98-2.2-2.2V20.3
		c0-1.22,0.98-2.2,2.2-2.2h20.61c1.22,0,2.2,0.98,2.2,2.2V40.91z"/>
	<path class="st0" d="M35.24,29.53l-6.69-3.96c-0.71-0.42-1.62,0.09-1.62,0.92l0,7.93c0,0.83,0.9,1.34,1.62,0.92l6.69-3.96
		C35.94,30.95,35.94,29.94,35.24,29.53z"/>
</g>
</svg>
