<?xml version="1.0" encoding="utf-8"?>
<!-- Generator: Adobe Illustrator 26.3.1, SVG Export Plug-In . SVG Version: 6.00 Build 0)  -->
<svg version="1.1" id="Layer_1" xmlns="http://www.w3.org/2000/svg" xmlns:xlink="http://www.w3.org/1999/xlink" x="0px" y="0px"
	 viewBox="0 0 50 50" style="enable-background:new 0 0 50 50;" xml:space="preserve">
<style type="text/css">
	.st0{fill:#39AAE1;}
</style>
<path class="st0" d="M47.83,0H2.17C0.97,0,0,0.97,0,2.17v40.9l12.13-12.22c-1.44-3.57-1.58-7.81,0.38-12.16
	c1.19-2.63,3.25-4.81,5.8-6.17c3.57-1.91,7.07-2.31,10.22-1.72c0.31,0.06,0.53,0.33,0.53,0.65l-0.06,1.71
	c0,0.18-0.08,0.36-0.21,0.49l-6.32,5.94c-0.13,0.12-0.2,0.29-0.21,0.46l-0.04,1.05c-0.01,0.18,0.06,0.36,0.19,0.49l6.98,7.09
	c0.12,0.12,0.29,0.2,0.47,0.2l1.39,0.01c0.19,0,0.36-0.07,0.49-0.21l5.88-6.25c0.12-0.13,0.31-0.19,0.48-0.21l1.58-0.26
	c0.3,0,0.57,0.21,0.63,0.51c0.38,2.02,0.41,5.15-0.71,7.99c-2.17,5.49-7.31,9.41-13.21,9.63c-2.3,0.09-4.48-0.36-6.45-1.21L8.89,50
	h38.93c1.2,0,2.17-0.97,2.17-2.17V2.17C50,0.97,49.03,0,47.83,0z"/>
</svg>
