<?xml version="1.0" encoding="UTF-8" standalone="no"?><!DOCTYPE svg PUBLIC "-//W3C//DTD SVG 1.1//EN" "http://www.w3.org/Graphics/SVG/1.1/DTD/svg11.dtd"><svg width="100%" height="100%" viewBox="0 0 46 46" version="1.1" xmlns="http://www.w3.org/2000/svg" xmlns:xlink="http://www.w3.org/1999/xlink" xml:space="preserve" xmlns:serif="http://www.serif.com/" style="fill-rule:evenodd;clip-rule:evenodd;stroke-linejoin:round;stroke-miterlimit:2;"><g><path d="M10.161,8.159l6.855,2.364l-1.095,5.587l-9.503,-3.275l2.337,-4.11c0.347,-0.61 0.809,-0.772 1.406,-0.566" style="fill:#002d4b;"/><path d="M0.473,25.815l5.983,-5.337l4.637,4.134l-8.297,7.401l-2.565,-4.524c-0.383,-0.671 -0.281,-1.208 0.242,-1.674" style="fill:#005176;"/><path d="M11.209,44.059l-1.71,-8.73l6.422,-2.215l2.373,12.104l-5.651,0c-0.84,0 -1.285,-0.397 -1.434,-1.159" style="fill:#008fc6;"/></g><path d="M33.243,43.697l-9.123,-3.145l1.458,-7.438l12.647,4.36l-3.11,5.47c-0.462,0.813 -1.074,1.029 -1.872,0.753" style="fill:#00acdc;"/><path d="M44.54,23.01l-7.964,7.104l-6.17,-5.501l11.043,-9.851l3.416,6.022c0.507,0.893 0.371,1.605 -0.325,2.226" style="fill:#6bc7e4;"/><path d="M31.851,1.542l2.277,11.621l-8.55,2.947l-3.159,-16.11l7.523,0c1.114,0 1.71,0.528 1.909,1.543" style="fill:#89d0e9;"/></svg>
