<?xml version="1.0" encoding="UTF-8" standalone="no"?><!DOCTYPE svg PUBLIC "-//W3C//DTD SVG 1.1//EN" "http://www.w3.org/Graphics/SVG/1.1/DTD/svg11.dtd"><svg width="100%" height="100%" viewBox="0 0 2134 2134" version="1.1" xmlns="http://www.w3.org/2000/svg" xmlns:xlink="http://www.w3.org/1999/xlink" xml:space="preserve" xmlns:serif="http://www.serif.com/" style="fill-rule:evenodd;clip-rule:evenodd;stroke-linejoin:round;stroke-miterlimit:2;"><g id="Layer1"></g><g id="Layer-1" serif:id="Layer 1"></g><g id="Layer-11" serif:id="Layer 1"></g><g id="Layer-12" serif:id="Layer 1"><g><path d="M1617.52,1474.76l266.469,-266.47c49.068,-49.067 49.068,-128.595 0,-177.646l-266.469,-266.487c98.102,-98.118 98.102,-257.191 -0,-355.293c-98.119,-98.118 -257.191,-98.118 -355.31,0l-266.47,-266.486c-49.067,-49.068 -128.595,-49.068 -177.663,-0l-444.116,444.133l-0,1065.9l444.116,444.15c49.068,49.05 128.596,49.033 177.663,-0l266.47,-266.504c-98.102,-98.102 -98.102,-257.174 -0,-355.293c98.119,-98.119 257.191,-98.119 355.31,0" style="fill:#fc3;"/><path d="M373.955,1652.4l444.116,-444.099c49.068,-49.085 49.068,-128.613 -0,-177.681l-444.116,-444.116l-0,1065.9Z" style="fill:#f90;"/><path d="M1794.19,937.368c31.646,31.628 49.068,73.72 49.068,118.47c0,44.751 -17.422,86.826 -49.068,118.488l-296.133,296.134l-29.648,-29.665c-81.627,-81.593 -214.388,-81.593 -296.015,0c-81.577,81.611 -81.577,214.388 0.017,295.999l29.647,29.664l-296.117,296.134c-32.678,32.661 -75.583,48.983 -118.504,48.983c-42.905,-0 -85.81,-16.322 -118.471,-48.983l-456.425,-456.426l0.017,-1100.66l456.408,-456.408c31.646,-31.646 73.721,-49.102 118.488,-49.102c44.75,-0 86.825,17.456 118.487,49.102l238.922,238.922c114.746,-85.878 278.593,-76.701 382.858,27.547c55.366,55.384 85.86,129.002 85.86,207.311c-0,64.154 -20.453,125.158 -58.296,175.547l238.905,238.939Zm-59.311,177.641c15.797,-15.814 24.5,-36.826 24.5,-59.176c0,-22.333 -8.703,-43.362 -24.5,-59.159l-296.134,-296.134l29.664,-29.664c39.519,-39.535 61.293,-92.091 61.293,-147.999c-0,-55.891 -21.774,-108.464 -61.293,-147.982c-81.627,-81.611 -214.388,-81.594 -295.998,-0.017l-29.664,29.664l-296.134,-296.134c-15.814,-15.797 -36.809,-24.5 -59.159,-24.5c-22.35,-0 -43.362,8.703 -59.159,24.5l-414.486,414.469l414.469,414.469c65.339,65.339 65.339,171.669 -0,236.975l-414.469,414.452l414.469,414.485c15.797,15.831 36.826,24.5 59.176,24.5c22.35,0 43.345,-8.669 59.159,-24.5l238.922,-238.905c-85.86,-114.779 -76.683,-278.609 27.548,-382.874c104.264,-104.231 268.095,-113.425 382.857,-27.548l238.939,-238.922Zm-1065.91,-118.331l-372.53,-372.53l0,863.394l372.53,-372.529c15.797,-15.815 24.517,-36.827 24.517,-59.176c-0,-22.333 -8.72,-43.362 -24.517,-59.159Z"/></g></g></svg>
