<?xml version="1.0" encoding="UTF-8" standalone="no"?><!DOCTYPE svg PUBLIC "-//W3C//DTD SVG 1.1//EN" "http://www.w3.org/Graphics/SVG/1.1/DTD/svg11.dtd"><svg width="100%" height="100%" viewBox="0 0 2134 2134" version="1.1" xmlns="http://www.w3.org/2000/svg" xmlns:xlink="http://www.w3.org/1999/xlink" xml:space="preserve" xmlns:serif="http://www.serif.com/" style="fill-rule:evenodd;clip-rule:evenodd;stroke-linejoin:round;stroke-miterlimit:2;"><g id="Layer1"></g><g id="Layer-1" serif:id="Layer 1"></g><g id="Layer-11" serif:id="Layer 1"><g><path d="M1604.35,1531.28c87.607,-0.907 155.575,-71.834 153.961,-160.658c-1.558,-85.649 -70.813,-151.958 -157.962,-151.24c-88.292,0.724 -155.621,70.705 -153.965,160.031c1.579,85.284 71.766,152.761 157.966,151.867m-384.597,-2.451c2.235,-8.715 5.178,-14.805 5.152,-20.882c-0.849,-191.341 4.205,-382.992 -5.389,-573.904c-5.797,-115.393 -73.045,-198.76 -188.079,-234.094c-117.784,-36.178 -223.593,-20.961 -308.153,77.355c-9.538,11.089 -19.591,21.735 -37.846,41.92l0,-514.88l-230.837,-0l0,1223.33l233.073,0c-0,-112.232 -2.718,-220.545 1.111,-328.625c2.008,-56.683 9.429,-114.726 25.222,-169.002c23.469,-80.658 84.578,-119.315 152.314,-107.837c86.558,14.667 120.602,57.509 120.889,154.05c0.395,132.386 0.015,264.772 0.238,397.158c0.03,18.346 1.607,36.689 2.487,55.415l229.818,0Zm-153.043,604.508c-70.399,-93.804 -135.309,-178.403 -197.841,-264.727c-19.81,-27.346 -41.633,-37.884 -75.551,-37.508c-154.58,1.717 -309.192,1.067 -463.791,0.641c-117.232,-0.325 -177.866,-59.99 -177.946,-176.303c-0.339,-492.834 -0.33,-985.669 -0.008,-1478.5c0.077,-116.652 60.43,-176.637 177.536,-176.705c492.488,-0.289 984.977,-0.328 1477.46,0.037c113.641,0.085 175.038,61.065 175.131,174.248c0.404,494.429 0.417,988.86 -0.013,1483.29c-0.098,112.945 -61.725,173.501 -175.484,173.9c-156.191,0.55 -312.395,1.014 -468.573,-0.559c-32.157,-0.323 -52.957,9.694 -71.745,35.519c-63.52,87.311 -129.067,173.147 -199.179,266.671" style="fill:#bd1c2b;fill-rule:nonzero;"/><path d="M1219.75,1528.83l-229.819,-0c-0.879,-18.728 -2.456,-37.071 -2.488,-55.417c-0.221,-132.385 0.157,-264.772 -0.237,-397.156c-0.288,-96.543 -34.33,-139.384 -120.889,-154.052c-67.735,-11.478 -128.845,27.18 -152.314,107.837c-15.794,54.277 -23.214,112.32 -25.223,169.003c-3.829,108.08 -1.11,216.394 -1.11,328.626l-233.072,-0l-0,-1223.33l230.837,-0l-0,514.878c18.255,-20.185 28.308,-30.83 37.846,-41.919c84.56,-98.315 190.368,-113.533 308.153,-77.354c115.032,35.332 182.28,118.7 188.078,234.094c9.594,190.911 4.541,382.562 5.39,573.902c0.026,6.078 -2.919,12.168 -5.152,20.884" style="fill:#fff;fill-rule:nonzero;"/><path d="M1604.35,1531.28c-86.2,0.894 -156.387,-66.583 -157.966,-151.867c-1.656,-89.326 65.673,-159.307 153.965,-160.031c87.149,-0.718 156.404,65.591 157.962,151.24c1.614,88.824 -66.354,159.751 -153.961,160.658" style="fill:#fff;fill-rule:nonzero;"/></g></g></svg>
