<?xml version="1.0" encoding="UTF-8" standalone="no"?><!DOCTYPE svg PUBLIC "-//W3C//DTD SVG 1.1//EN" "http://www.w3.org/Graphics/SVG/1.1/DTD/svg11.dtd"><svg width="100%" height="100%" viewBox="0 0 2134 2134" version="1.1" xmlns="http://www.w3.org/2000/svg" xmlns:xlink="http://www.w3.org/1999/xlink" xml:space="preserve" xmlns:serif="http://www.serif.com/" style="fill-rule:evenodd;clip-rule:evenodd;stroke-linejoin:round;stroke-miterlimit:2;"><g id="Layer1"></g><g id="Layer-1" serif:id="Layer 1"><path d="M0,1421.43c158.333,-171.435 520.656,-627.722 856.392,-523.493c181.108,56.225 164.441,260.391 178.34,405.503c3.621,37.809 36.8,56.246 72.417,42.433c172.018,-66.711 421.352,-454.795 742.478,-397.013c237.873,42.802 283.706,294.322 283.706,380.302c0,183.38 -4.166,345.833 0,529.166c-5.108,-20.658 -77.889,-447.278 -448.839,-332.373c-292.827,90.707 -496.994,424.04 -596.994,390.707c-118.914,-39.638 62.5,-491.667 -361.064,-455.165c-159.451,13.741 -405.603,159.331 -726.436,537.895l0,-577.962Z" style="fill:#142a35;fill-rule:nonzero;"/><path d="M0,660.995c158.333,-171.435 520.656,-627.722 856.392,-523.493c181.108,56.225 164.441,260.391 178.34,405.503c3.621,37.809 36.8,56.246 72.417,42.433c172.018,-66.711 421.352,-454.795 742.478,-397.013c237.873,42.802 283.706,292.262 283.706,378.242l0,537.5c-5.108,-20.659 -77.889,-453.553 -448.839,-338.647c-292.827,90.707 -496.994,424.04 -596.994,390.707c-118.914,-39.639 62.5,-491.667 -361.064,-455.165c-159.451,13.741 -405.603,159.331 -726.436,537.895l0,-577.962Z" style="fill:#142a35;fill-rule:nonzero;"/></g></svg>