<?xml version="1.0" encoding="UTF-8" standalone="no"?>
<!DOCTYPE svg PUBLIC "-//W3C//DTD SVG 1.1//EN" "http://www.w3.org/Graphics/SVG/1.1/DTD/svg11.dtd">
<svg width="100%" height="100%" viewBox="0 0 512 512" version="1.1" xmlns="http://www.w3.org/2000/svg" xmlns:xlink="http://www.w3.org/1999/xlink" xml:space="preserve" xmlns:serif="http://www.serif.com/" style="fill-rule:evenodd;clip-rule:evenodd;stroke-linejoin:round;stroke-miterlimit:2;">
    <g transform="matrix(0.937729,0,0,0.980843,31.8828,9.80843)">
        <path d="M512,17.92C512,2.51 498.914,-10 482.796,-10L-4.796,-10C-20.914,-10 -34,2.51 -34,17.92L-34,484.08C-34,499.49 -20.914,512 -4.796,512L482.796,512C498.914,512 512,499.49 512,484.08L512,17.92Z" style="fill:rgb(83,98,161);"/>
    </g>
    <g transform="matrix(2.34555,0,0,1.01047,-568.461,-2.68063)">
        <path d="M351.5,70.938C406.958,70.28 433.326,167.916 447,256C382.215,121.712 318.573,122.73 256,256C270.188,166.695 297.734,68.793 351.5,70.938Z" style="fill:url(#_Radial1);"/>
    </g>
    <g transform="matrix(0.612605,0,0,0.684844,95.4311,153.419)">
        <path d="M267,87C321.991,86.815 418,110.559 418,209C418,307.441 321.399,329.94 271,329C270.499,328.991 270.235,339.327 270.107,347.211C269.917,359.07 261.952,369.392 250.528,372.582C247.224,373.442 243.41,373.993 239,374C218.711,374.033 212.345,363.232 210.594,358.832C210.245,357.869 210.064,356.855 210.058,355.831C209.921,343.972 209.321,245.043 209.09,206.909C209.034,197.557 213.512,188.757 221.107,183.298C222.257,182.471 223.436,181.624 224.618,180.774C234.528,173.652 247.759,173.224 258.108,179.692C258.111,179.694 258.115,179.697 258.118,179.699C267.362,185.477 272.935,195.648 272.828,206.548C272.542,235.715 272,291 272,291C272,291 374.508,280.462 366,201C358.696,132.783 275.693,132.931 260.505,133C191.697,133.313 156.485,170.896 140,187C127.723,198.994 90.104,189.535 114,158C145.511,116.416 200.723,87.223 267,87Z" style="fill:white;"/>
    </g>
    <defs>
        <radialGradient id="_Radial1" cx="0" cy="0" r="1" gradientUnits="userSpaceOnUse" gradientTransform="matrix(95.5,0,0,92.5484,351.5,163.452)"><stop offset="0" style="stop-color:rgb(237,165,26);stop-opacity:1"/><stop offset="1" style="stop-color:white;stop-opacity:1"/></radialGradient>
    </defs>
</svg>
