<svg width="262" height="422" xmlns="http://www.w3.org/2000/svg"><g fill="none"><path d="M117.5 142.5l10.8 12.9c.6.8 1.9.3 1.9-.7v-28.2c-3.3 6-7.6 11.3-12.7 16z" fill="#FFF"/><path d="M242.9 374.7v-201h-37v124.6c0 48-31.9 86.9-80.7 86.6-48-.4-78.6-41.3-78.6-89.3V200c0-14.5-11.8-26.3-26.3-26.3H9.6v124.6c0 69.3 50.1 125.4 120.5 123.5 32.7-.9 54.5-14.9 75.9-36.7.5 9 2.2 15.9 8.9 23.5 12.6 14.2 38.1 12 46.6-2.2-9.5-1.7-18.1-9.4-18.6-31.7z" fill="#0072B1"/><path d="M20.6 92.9c0 26.1 21.2 47.3 47.3 47.3 26.1 0 47.3-21.2 47.3-47.3 0-26.1-21.2-47.3-47.3-47.3-26.1 0-47.3 21.2-47.3 47.3zm18.1 0c0-16.1 13-29.1 29.1-29.1s29.1 13 29.1 29.1-13 29.1-29.1 29.1c-16 0-29.1-13-29.1-29.1z" fill="#FFF"/><circle fill="#0072B1" cx="67.8" cy="92.9" r="29.1"/><path d="M248.2 24.6c3.4-4 3.6-9 3.6-14.4 0-6.9-.8-11.3-6.1-9.1 0 0-81 34.8-119.7 34.8S6.3 1 6.3 1C1-1.1.2 3.3.2 10.1c0 5.4.2 10.4 3.6 14.4l16.9 20.1C8.2 56.9.4 74 .4 92.9c0 37.2 30.3 67.5 67.5 67.5 14.8 0 28.5-4.9 39.6-13l14.9 18.3c.9 1.1 2.3 1.5 3.5 1.5 1.2 0 2.6-.4 3.5-1.5l14.9-18.3c11.1 8.1 24.8 13 39.6 13 37.2 0 67.5-30.3 67.5-67.5 0-18.9-7.8-36-20.4-48.2l17.2-20.1zM67.8 140.2c-26.1 0-47.3-21.2-47.3-47.3 0-26.1 21.2-47.3 47.3-47.3 26.1 0 47.3 21.2 47.3 47.3 0 26.1-21.2 47.3-47.3 47.3zm163.6-47.3c0 26.1-21.2 47.3-47.3 47.3-26.1 0-47.3-21.2-47.3-47.3 0-26.1 21.2-47.3 47.3-47.3 26.1 0 47.3 21.2 47.3 47.3z" fill="#0072B1"/><path d="M184.1 45.6c-26.1 0-47.3 21.2-47.3 47.3 0 26.1 21.2 47.3 47.3 47.3 26.1 0 47.3-21.2 47.3-47.3 0-26.1-21.2-47.3-47.3-47.3zm0 76.4C168 122 155 109 155 92.9s13-29.1 29.1-29.1 29.1 13 29.1 29.1-13 29.1-29.1 29.1z" fill="#FFF"/><circle fill="#0072B1" cx="184.1" cy="92.9" r="29.1"/><path d="M114.1 140.9l10 12c.6.8 1.9.3 1.9-.7v-25.1c-3.4 5.1-7.4 9.7-11.9 13.8z" fill="#FFF"/></g></svg>
