<?xml version="1.0" encoding="UTF-8" standalone="no"?><!DOCTYPE svg PUBLIC "-//W3C//DTD SVG 1.1//EN" "http://www.w3.org/Graphics/SVG/1.1/DTD/svg11.dtd"><svg width="100%" height="100%" viewBox="0 0 2134 2134" version="1.1" xmlns="http://www.w3.org/2000/svg" xmlns:xlink="http://www.w3.org/1999/xlink" xml:space="preserve" xmlns:serif="http://www.serif.com/" style="fill-rule:evenodd;clip-rule:evenodd;stroke-linejoin:round;stroke-miterlimit:2;"><g id="Layer1"></g><g id="Layer-1" serif:id="Layer 1"><g><rect x="1203.28" y="1917.91" width="215.424" height="215.424" style="fill:#e82f82;"/><path d="M1011,-0c-177.8,-0 -319.236,50.099 -424.31,150.298c-105.073,100.198 -157.582,235.154 -157.524,404.866c-0,160.191 50.558,292.365 151.674,396.521c101.116,104.156 229.275,156.234 384.477,156.234c64.782,-0 142.21,-2.409 238.308,-2.409l-0,538.56l215.08,-0l-0,-715.442l-412.351,-0.602c-105.992,0 -192.396,-35.273 -259.214,-105.819c-66.818,-70.546 -100.199,-161.339 -100.141,-272.377c-0,-98.421 29.652,-181.155 88.957,-248.202c18.388,-20.732 39.551,-38.826 62.889,-53.77c25.166,-15.589 52.59,-27.197 81.3,-34.413c31.201,-8.259 93.459,-12.388 186.775,-12.388l136.447,-0l-0,174.3l215.08,0l-0,-375.357l-407.447,-0Z" style="fill:#1f3346;fill-rule:nonzero;"/></g></g></svg>
