<?xml version="1.0" encoding="UTF-8" standalone="no"?><!DOCTYPE svg PUBLIC "-//W3C//DTD SVG 1.1//EN" "http://www.w3.org/Graphics/SVG/1.1/DTD/svg11.dtd"><svg width="100%" height="100%" viewBox="0 0 512 512" version="1.1" xmlns="http://www.w3.org/2000/svg" xmlns:xlink="http://www.w3.org/1999/xlink" xml:space="preserve" xmlns:serif="http://www.serif.com/" style="fill-rule:evenodd;clip-rule:evenodd;stroke-linejoin:round;stroke-miterlimit:2;"><g><path d="M110.999,42.487c-17.825,0 -32.313,14.488 -32.313,32.313l0,362.36c0,17.825 14.488,32.312 32.313,32.312l290.043,0c17.784,0 32.272,-14.487 32.272,-32.312l0,-362.36c0,-17.825 -14.488,-32.313 -32.272,-32.313l-290.043,0Zm290.083,469.513l-290.083,0c-41.266,0 -74.84,-33.574 -74.84,-74.8l0,-362.4c0,-41.266 33.574,-74.8 74.84,-74.8l290.043,0c41.266,0 74.799,33.574 74.799,74.8l0,362.36c0.041,41.266 -33.533,74.84 -74.759,74.84" style="fill:#4d5c6a;fill-rule:nonzero;"/><path d="M383.054,145.286c0,-11.151 -10.744,-20.267 -24.296,-20.959l0,-0.081l-203.807,0c-14.325,0 -25.923,9.401 -25.923,21.04c0,11.639 11.639,21.04 25.923,21.04c0.529,0 203.278,-0.041 203.807,-0.041l0.041,0c13.552,-0.692 24.255,-9.808 24.255,-20.999" style="fill:#6a98d0;fill-rule:nonzero;"/><path d="M383.054,364.272c0,-11.15 -10.744,-20.266 -24.296,-20.958l0,-0.082l-203.807,0c-14.325,0 -25.923,9.401 -25.923,21.04c0,11.64 11.639,21.04 25.923,21.04c0.529,0 203.278,-0.04 203.807,-0.04l0.041,0c13.552,-0.733 24.255,-9.849 24.255,-21" style="fill:#45a77b;fill-rule:nonzero;"/><path d="M383.054,255.98c0,-11.151 -10.744,-20.267 -24.296,-20.959l0,-0.081l-203.807,0c-14.325,0 -25.923,9.401 -25.923,21.04c0,11.639 11.639,21.04 25.923,21.04c0.529,0 203.278,-0.041 203.807,-0.041l0.041,0c13.552,-0.733 24.255,-9.849 24.255,-20.999" style="fill:#e82037;fill-rule:nonzero;"/></g></svg>
