<?xml version="1.0" encoding="UTF-8" standalone="no"?><!DOCTYPE svg PUBLIC "-//W3C//DTD SVG 1.1//EN" "http://www.w3.org/Graphics/SVG/1.1/DTD/svg11.dtd"><svg width="100%" height="100%" viewBox="0 0 2134 2134" version="1.1" xmlns="http://www.w3.org/2000/svg" xmlns:xlink="http://www.w3.org/1999/xlink" xml:space="preserve" xmlns:serif="http://www.serif.com/" style="fill-rule:evenodd;clip-rule:evenodd;stroke-linejoin:round;stroke-miterlimit:2;"><g id="Layer1"></g><g id="Layer-1" serif:id="Layer 1"><g><path d="M1071.78,61.391c-373.462,-0 -677.858,455.316 -677.858,1002.72c-0,555.076 304.396,1000.16 677.858,1000.16c370.903,-0 675.299,-445.084 675.299,-1002.72c0,-547.402 -304.396,-1000.16 -675.299,-1000.16m-5.116,-61.391c455.315,-0 839.008,478.337 839.008,1064.11c0,588.329 -381.135,1069.22 -839.008,1069.22c-465.548,0 -839.009,-478.337 -839.009,-1066.67c-0,-585.772 373.461,-1066.67 839.009,-1066.67" style="fill:#194894;fill-rule:nonzero;"/><path d="M1588.49,769.944c-10.232,-196.962 -217.426,-506.475 -496.243,-516.707l0,539.729l470.664,-0c2.558,-0 28.137,2.558 25.579,-23.022" style="fill:#194894;fill-rule:nonzero;"/><path d="M1588.49,1358.27c0,-17.905 -12.79,-30.695 -12.79,-30.695l-537.17,-539.728l0,-534.613c-278.817,10.232 -483.453,319.745 -496.243,519.265c0,20.464 12.79,30.695 12.79,30.695l539.728,544.845l0,532.054c278.817,-10.232 488.569,-324.86 493.685,-521.823" style="fill:#194894;fill-rule:nonzero;"/><path d="M542.286,1365.95c10.232,196.963 219.984,503.917 496.243,514.149l0,-539.728l-473.221,-0c-0,-0 -25.58,-2.558 -23.022,25.579" style="fill:#194894;fill-rule:nonzero;"/></g></g></svg>
