<?xml version="1.0" encoding="UTF-8" standalone="no"?><!DOCTYPE svg PUBLIC "-//W3C//DTD SVG 1.1//EN" "http://www.w3.org/Graphics/SVG/1.1/DTD/svg11.dtd"><svg width="100%" height="100%" viewBox="0 0 2134 2134" version="1.1" xmlns="http://www.w3.org/2000/svg" xmlns:xlink="http://www.w3.org/1999/xlink" xml:space="preserve" xmlns:serif="http://www.serif.com/" style="fill-rule:evenodd;clip-rule:evenodd;stroke-linejoin:round;stroke-miterlimit:2;"><circle cx="1066.67" cy="1066.67" r="1066.67" style="fill:#571b7e;"/><path d="M1025.81,104.167c-75.217,-0.117 -136.308,90.321 -136.481,202.098c-0.122,111.671 60.687,202.352 135.852,202.469c75.165,0.117 136.255,-90.374 136.429,-202.098c0.174,-111.777 -60.635,-202.352 -135.8,-202.469" style="fill:#fff;fill-rule:nonzero;"/><path d="M482.107,342.515c-51.967,26.831 -61.664,111.177 -21.861,188.382c39.85,77.181 114.278,118.091 166.245,91.26c51.967,-26.831 61.711,-111.201 21.885,-188.335c-39.781,-77.276 -114.279,-118.209 -166.269,-91.307" style="fill:#fff;fill-rule:nonzero;"/><path d="M329.815,773.681c-56.846,-38.601 -123.882,-38.852 -149.858,-0.506c-25.944,38.114 -0.84,100.303 55.86,138.932c56.862,38.485 123.766,38.837 149.872,0.579c25.916,-38.26 0.783,-100.406 -55.874,-139.005" style="fill:#fff;fill-rule:nonzero;"/><path d="M210.197,1122.47c-46.684,-3.125 -86.225,19.777 -88.278,51.234c-1.942,31.359 33.995,59.156 80.675,62.334c46.582,3.066 86.012,-19.739 88.124,-51.297c1.991,-31.304 -34.04,-59.265 -80.521,-62.271" style="fill:#fff;fill-rule:nonzero;"/><path d="M1294.26,1074.38l0.053,-20.929c0.157,-127.46 -36.403,-153.686 -216.21,-153.896c-211.175,-0.367 -253.084,25.755 -253.294,158.407c-0.158,83.767 20.719,122.215 76.581,139.734c29.635,8.812 40.073,8.812 221.612,19.565c195.491,12.484 261.791,24.81 317.549,65.041c71.493,48.939 95.831,117.075 95.621,265.411c-0.262,144.874 -21.296,223.396 -71.965,273.96c-69.92,67.927 -158.984,87.019 -401.578,86.652c-211.174,-0.315 -282.72,-12.641 -359.458,-58.117c-43.641,-26.279 -80.2,-82.194 -92.264,-143.249c-10.438,-50.669 -12.117,-85.55 -13.743,-178.077l214.741,0.315c-0.157,87.281 4.983,116.97 24.181,146.658c27.852,47.155 55.757,52.453 237.296,52.715c130.869,0.21 167.534,-5.036 200.736,-31.157c29.741,-20.876 42.015,-66.248 42.12,-146.553c0.105,-76.738 -17.257,-113.455 -64.412,-129.191c-27.905,-10.543 -27.905,-10.543 -221.613,-23.026c-198.953,-12.537 -240.81,-19.565 -300.134,-47.575c-92.421,-45.529 -128.981,-129.348 -128.719,-289.906c0.21,-137.898 30.003,-223.396 92.946,-268.715c71.598,-53.974 162.394,-69.552 378.814,-69.238c218.15,0.368 312.355,23.184 369.896,87.806c45.267,50.722 66.143,120.536 65.985,221.823l-0.052,41.857l-214.689,-0.315Z" style="fill:#fff;fill-rule:nonzero;"/></svg>
