<?xml version="1.0" encoding="UTF-8" standalone="no"?><!DOCTYPE svg PUBLIC "-//W3C//DTD SVG 1.1//EN" "http://www.w3.org/Graphics/SVG/1.1/DTD/svg11.dtd"><svg width="100%" height="100%" viewBox="0 0 8892 8892" version="1.1" xmlns="http://www.w3.org/2000/svg" xmlns:xlink="http://www.w3.org/1999/xlink" xml:space="preserve" xmlns:serif="http://www.serif.com/" style="fill-rule:evenodd;clip-rule:evenodd;stroke-linejoin:round;stroke-miterlimit:2;"><circle cx="4444.46" cy="4444.46" r="4444.46" style="fill:#165590;"/><path d="M4274.21,434.029c-313.404,-0.487 -567.95,376.338 -568.671,842.075c-0.508,465.296 252.863,843.134 566.051,843.621c313.187,0.488 567.729,-376.558 568.454,-842.075c0.725,-465.737 -252.646,-843.133 -565.834,-843.621" style="fill:#fff;fill-rule:nonzero;"/><path d="M2008.78,1427.15c-216.529,111.796 -256.933,463.237 -91.087,784.925c166.041,321.587 476.158,492.046 692.687,380.25c216.529,-111.796 257.129,-463.338 91.188,-784.729c-165.754,-321.984 -476.163,-492.538 -692.788,-380.446" style="fill:#fff;fill-rule:nonzero;"/><path d="M1374.23,3223.67c-236.858,-160.838 -516.175,-161.883 -624.408,-2.108c-108.1,158.808 -3.5,417.929 232.75,578.883c236.925,160.354 515.692,161.821 624.467,2.412c107.983,-159.416 3.262,-418.358 -232.809,-579.187" style="fill:#fff;fill-rule:nonzero;"/><path d="M875.821,4676.96c-194.517,-13.021 -359.271,82.404 -367.825,213.475c-8.092,130.663 141.646,246.484 336.146,259.725c194.091,12.775 358.383,-82.246 367.183,-213.737c8.296,-130.434 -141.833,-246.938 -335.504,-259.463" style="fill:#fff;fill-rule:nonzero;"/><path d="M5392.75,4476.58l0.221,-87.204c0.654,-531.083 -151.679,-640.358 -900.875,-641.233c-879.896,-1.529 -1054.52,107.312 -1055.39,660.029c-0.658,349.029 86.329,509.229 319.088,582.225c123.479,36.717 166.971,36.717 923.383,81.521c814.546,52.016 1090.8,103.375 1323.12,271.004c297.887,203.912 399.296,487.812 398.421,1105.88c-1.092,603.642 -88.734,930.817 -299.854,1141.5c-291.334,283.029 -662.434,362.579 -1673.24,361.05c-879.892,-1.312 -1178,-52.671 -1497.74,-242.154c-181.837,-109.496 -334.166,-342.475 -384.433,-596.871c-43.492,-211.121 -50.488,-356.458 -57.263,-741.987l894.755,1.312c-0.655,363.671 20.762,487.375 100.754,611.075c116.05,196.479 232.321,218.554 988.733,219.646c545.288,0.875 698.058,-20.983 836.4,-129.821c123.921,-86.983 175.063,-276.033 175.5,-610.637c0.438,-319.742 -71.904,-472.729 -268.383,-538.296c-116.271,-43.929 -116.271,-43.929 -923.388,-95.942c-828.971,-52.237 -1003.38,-81.521 -1250.56,-198.229c-385.088,-189.704 -537.421,-538.95 -536.329,-1207.94c0.875,-574.575 125.012,-930.816 387.275,-1119.64c298.325,-224.892 676.641,-289.8 1578.39,-288.492c908.959,1.533 1301.48,96.6 1541.23,365.858c188.612,211.342 275.596,502.234 274.937,924.263l-0.217,174.404l-894.537,-1.313Z" style="fill:#fff;fill-rule:nonzero;"/></svg>
