<?xml version="1.0" encoding="UTF-8" standalone="no"?><!DOCTYPE svg PUBLIC "-//W3C//DTD SVG 1.1//EN" "http://www.w3.org/Graphics/SVG/1.1/DTD/svg11.dtd"><svg width="100%" height="100%" viewBox="0 0 8892 8892" version="1.1" xmlns="http://www.w3.org/2000/svg" xmlns:xlink="http://www.w3.org/1999/xlink" xml:space="preserve" xmlns:serif="http://www.serif.com/" style="fill-rule:evenodd;clip-rule:evenodd;stroke-linejoin:round;stroke-miterlimit:2;"><g><path d="M5415.75,0.001c-370.7,-0.577 -671.782,445.139 -672.635,996.023c-0.601,550.361 299.091,997.274 669.535,997.851c370.445,0.577 671.522,-445.401 672.379,-996.023c0.858,-550.884 -298.834,-997.275 -669.279,-997.851" style="fill:#461d7c;fill-rule:nonzero;"/><path d="M2736.16,1174.68c-256.115,132.234 -303.906,547.926 -107.74,928.424c196.397,380.38 563.209,582.002 819.324,449.768c256.115,-132.235 304.138,-548.045 107.859,-928.194c-196.058,-380.848 -563.215,-582.583 -819.443,-449.998" style="fill:#461d7c;fill-rule:nonzero;"/><path d="M1985.6,3299.64c-280.161,-190.242 -610.542,-191.479 -738.563,-2.494c-127.863,187.842 -4.14,494.335 275.302,684.715c280.239,189.67 609.97,191.405 738.631,2.853c127.725,-188.561 3.859,-494.842 -275.37,-685.074" style="fill:#461d7c;fill-rule:nonzero;"/><path d="M1396.07,5018.62c-230.078,-15.401 -424.952,97.469 -435.07,252.503c-9.571,154.55 167.541,291.545 397.6,307.207c229.575,15.111 423.903,-97.282 434.311,-252.813c9.813,-154.279 -167.763,-292.082 -396.841,-306.897" style="fill:#461d7c;fill-rule:nonzero;"/><path d="M6738.79,4781.61l0.261,-103.147c0.774,-628.176 -179.409,-757.429 -1065.57,-758.464c-1040.76,-1.808 -1247.3,126.932 -1248.34,780.696c-0.779,412.838 102.112,602.326 377.423,688.667c146.054,43.429 197.496,43.429 1092.2,96.425c963.461,61.526 1290.21,122.274 1565.01,320.549c352.348,241.191 472.295,576.994 471.261,1308.06c-1.292,714 -104.956,1100.99 -354.674,1350.19c-344.595,334.773 -783.539,428.866 -1979.14,427.057c-1040.75,-1.552 -1393.36,-62.3 -1771.56,-286.425c-215.081,-129.513 -395.259,-405.086 -454.715,-705.99c-51.443,-249.718 -59.718,-421.626 -67.731,-877.638l1058.33,1.553c-0.774,430.157 24.558,576.477 119.174,722.791c137.266,232.4 274.793,258.511 1169.49,259.802c644.977,1.035 825.677,-24.82 989.31,-153.555c146.576,-102.885 207.068,-326.497 207.585,-722.274c0.518,-378.197 -85.049,-559.153 -317.449,-636.707c-137.527,-51.96 -137.527,-51.96 -1092.2,-113.482c-980.523,-61.787 -1186.81,-96.424 -1479.18,-234.469c-455.489,-224.386 -635.672,-637.481 -634.381,-1428.78c1.035,-679.619 147.868,-1100.99 458.077,-1324.34c352.865,-266.007 800.345,-342.782 1866.95,-341.234c1075.13,1.814 1539.41,114.26 1823,432.744c223.095,249.979 325.98,594.052 325.202,1093.24l-0.257,206.289l-1058.08,-1.552Z" style="fill-rule:nonzero;"/></g></svg>