<?xml version="1.0" encoding="UTF-8" standalone="no"?><!DOCTYPE svg PUBLIC "-//W3C//DTD SVG 1.1//EN" "http://www.w3.org/Graphics/SVG/1.1/DTD/svg11.dtd"><svg width="100%" height="100%" viewBox="0 0 131 131" version="1.1" xmlns="http://www.w3.org/2000/svg" xmlns:xlink="http://www.w3.org/1999/xlink" xml:space="preserve" xmlns:serif="http://www.serif.com/" style="fill-rule:evenodd;clip-rule:evenodd;stroke-linejoin:round;stroke-miterlimit:2;"><g id="Layer-1" serif:id="Layer 1"><path d="M130.296,65.66c-0.771,36.939 -29.844,65.406 -66.007,64.632c-35.981,-0.77 -64.418,-30.145 -63.699,-65.797c0.733,-36.361 30.242,-64.762 66.387,-63.896c35.401,0.848 64.046,30.28 63.319,65.061Zm-40.302,-38.376l-5.096,0c-1.402,4.175 -2.315,8.233 -4.101,11.861c-2.014,4.095 -5.246,6.736 -10.471,6.217c-4.206,-0.418 -8.49,0.019 -12.733,-0.126c-2.843,-0.098 -3.663,0.901 -2.566,3.487c6.356,0.724 7.352,2.386 4.994,8.358c-1.191,3.015 -2.446,6.006 -3.708,8.993c-2.529,5.983 -5.083,11.956 -7.918,18.618c-3.657,-8.235 -7.03,-15.727 -10.304,-23.261c-1.086,-2.502 -1.977,-5.095 -2.85,-7.683c-0.897,-2.66 0.561,-4.027 2.921,-4.632c1.069,-0.273 2.224,-0.21 3.535,-0.317c0.997,-2.831 -0.048,-3.58 -2.538,-3.553c-7.995,0.089 -15.993,0.089 -23.987,0.002c-2.54,-0.027 -3.501,0.787 -2.493,3.5c5.735,0.083 8.389,4.075 10.469,8.678c6.522,14.436 12.975,28.902 19.575,43.302c0.56,1.221 2.026,2.833 3.042,2.812c1.047,-0.021 2.496,-1.631 3.019,-2.864c6.141,-14.459 12.093,-28.999 18.199,-43.473c2.614,-6.201 4.292,-6.923 11.203,-5.318l0,4.011c-0.001,10.37 -0.082,20.739 0.023,31.107c0.093,9.264 5.158,15.438 13.015,16.649c6.207,0.955 16.572,-4.121 19.752,-10.062c-0.831,-0.792 -1.692,-1.613 -2.429,-2.316c-2.549,1.624 -4.727,3.359 -7.18,4.504c-5.434,2.537 -9.405,0.627 -10.584,-5.265c-0.651,-3.261 -0.546,-6.695 -0.57,-10.053c-0.066,-9.585 -0.024,-19.173 -0.024,-29.172l14.067,0l0,-6.186l-14.262,0l0,-17.818Z" style="fill-rule:nonzero;"/></g></svg>
