<?xml version="1.0" encoding="UTF-8" standalone="no"?><!DOCTYPE svg PUBLIC "-//W3C//DTD SVG 1.1//EN" "http://www.w3.org/Graphics/SVG/1.1/DTD/svg11.dtd"><svg width="100%" height="100%" viewBox="0 0 2134 2134" version="1.1" xmlns="http://www.w3.org/2000/svg" xmlns:xlink="http://www.w3.org/1999/xlink" xml:space="preserve" xmlns:serif="http://www.serif.com/" style="fill-rule:evenodd;clip-rule:evenodd;stroke-linejoin:round;stroke-miterlimit:2;"><g id="Layer1"></g><g id="Layer-1" serif:id="Layer 1"><path d="M2133.33,106.667c0,-58.871 -47.795,-106.667 -106.666,-106.667l-1920,0c-58.871,0 -106.667,47.796 -106.667,106.667l-0,1920c-0,58.871 47.796,106.666 106.667,106.666l1920,0c58.871,0 106.666,-47.795 106.666,-106.666l0,-1920Z" style="fill:#00709f;"/><g><path d="M304.688,1504.07l-208.855,-874.802l180.809,-0l131.876,600.904l159.923,-600.904l210.048,-0l153.359,611.048l134.264,-611.048l177.824,-0l-212.435,874.802l-187.372,-0l-174.244,-654.013l-173.648,654.013l-191.549,-0Z" style="fill:#fff;fill-rule:nonzero;"/><path d="M1334.04,1504.07l0,-874.802l283.445,-0c107.411,-0 177.427,4.376 210.048,13.128c50.126,13.128 92.095,41.671 125.91,85.63c33.814,43.959 50.722,100.747 50.722,170.366c-0,53.705 -9.747,98.857 -29.24,135.457c-19.493,36.599 -44.257,65.341 -74.292,86.227c-30.036,20.885 -60.568,34.709 -91.598,41.472c-42.169,8.354 -103.234,12.532 -183.195,12.532l-115.169,-0l0,329.99l-176.631,-0Zm176.631,-726.814l0,248.238l96.67,0c69.618,0 116.163,-4.574 139.634,-13.724c23.472,-9.15 41.871,-23.471 55.198,-42.965c13.326,-19.493 19.99,-42.168 19.99,-68.026c-0,-31.826 -9.349,-58.082 -28.046,-78.768c-18.698,-20.687 -42.368,-33.616 -71.011,-38.788c-21.084,-3.978 -63.452,-5.967 -127.103,-5.967l-85.332,0Z" style="fill:#fff;fill-rule:nonzero;"/></g></g></svg>
