<svg xmlns="http://www.w3.org/2000/svg" viewBox="0 0 512 512"><title>zoom</title><path d="M256,512c-30.31-.27-60.63-.09-90.94-1.34-37.4-1.54-71.33-11.89-101.31-35.27-18-14-31-31.56-42.54-50.72C7.68,402.28,3.35,377.41,2,352c-3.11-59.74-2-119.54-1-179.33.37-22.38,3.23-44.34,11-65.29,10.22-27.53,27.43-50.33,50.09-69A155,155,0,0,1,148.61,3C174,.65,199.39.25,224.82.22c38.86-.07,77.74-.89,116.56,1.14,19.75,1,39.59,2.46,58.54,9,30.46,10.59,55.2,29.1,75.4,54.08,22.46,27.76,33.23,59.81,34.62,95.05,2.41,61.35,3,122.74.25,184.1-.89,20.19-2.35,40.52-9.79,59.77-15.58,40.26-42.81,70-80.83,90.17-21.44,11.36-44.72,15.19-68.49,16.73C319.41,512.36,287.68,511.72,256,512ZM226.19,343v.13h76.33c5,0,9.64-.87,13.8-3.93,6.45-4.75,8.21-11.51,8.2-18.9,0-33.62.83-67.26-.76-100.86-.4-8.45-2.28-16.74-6.84-24.25-10.11-16.66-25-25.22-44.22-25.87-50.16-1.7-100.36-.58-150.54-.59-4.59,0-9.28.52-13.42,3.13-7.53,4.73-8.53,12.29-8.54,20.07-.08,29.81,0,59.62.07,89.43,0,5.39-1,11,.3,16.12,2.85,11.61,7.15,22.66,16.07,31.43,8.47,8.33,18.69,13.52,30.13,13.85C173.23,343.57,199.72,343,226.19,343Zm185.58-86.6q0-35.82,0-71.64c0-5.47-1.86-10.05-6.77-12.61-5.23-2.72-10.35-1.8-15,1.89-1.47,1.18-3,2.25-4.49,3.46-9.83,8.13-19.53,16.42-29.5,24.38C345.74,210.15,337,219,337.22,233.56c.27,15.5,0,31,.23,46.52a28.61,28.61,0,0,0,9.73,21.27c4.77,4.33,9.59,8.62,14.63,12.62,11,8.77,21.15,18.69,33,26.5a6.83,6.83,0,0,0,7.19.69c7.13-3,9.76-6.23,9.79-14.66C411.84,303.15,411.78,279.79,411.77,256.44Z" transform="translate(0)" style="fill:#4d88f4"/></svg>
