<?xml version="1.0" encoding="UTF-8" standalone="no"?>
<!DOCTYPE svg PUBLIC "-//W3C//DTD SVG 1.1//EN" "http://www.w3.org/Graphics/SVG/1.1/DTD/svg11.dtd">
<svg width="100%" height="100%" viewBox="0 0 512 512" version="1.1" xmlns="http://www.w3.org/2000/svg" xmlns:xlink="http://www.w3.org/1999/xlink" xml:space="preserve" xmlns:serif="http://www.serif.com/" style="fill-rule:evenodd;clip-rule:evenodd;stroke-linejoin:round;stroke-miterlimit:2;">
    <g id="Layer-1" serif:id="Layer 1">
        <path d="M512,52.071C512,23.332 488.668,0 459.929,0L52.071,0C23.332,0 -0,23.332 -0,52.071L-0,459.929C-0,488.668 23.332,512 52.071,512L459.929,512C488.668,512 512,488.668 512,459.929L512,52.071ZM286.799,341.055C286.799,341.055 290.575,341.24 300.079,338.158C320.409,331.566 336.069,306.396 336.087,280.28C336.097,265.199 331.55,253.472 321.649,243.05C314.926,235.972 307.778,231.466 298.289,228.324C292.054,226.258 284.311,225.457 276.987,225.424C269.663,225.392 262.148,226.093 255.169,228.312C251.076,229.613 247.153,230.898 246.451,231.167C245.627,231.483 245.308,231.247 245.55,230.5C245.757,229.864 247.132,224.087 248.606,217.663L251.288,205.982L328.446,205.982L328.446,170.945L368.162,171.368C405.186,171.763 408.339,171.914 414.672,173.597C432.288,178.277 442.662,187.703 447.973,203.857C449.934,209.822 451.116,217.106 451.116,223.385C451.116,229.761 449.969,235.84 448.852,239.962C443.989,257.91 431.045,270.492 412.548,275.25C405.747,276.999 389.649,278.105 370.283,278.154L355.629,278.191L355.629,341.055L324.877,341.055C307.201,341.055 286.335,341.483 286.799,341.055ZM61.717,256.095L61.717,171.143L114.387,171.143L114.387,244.203L171.305,244.203L171.305,171.143L213.814,171.143L213.358,173.054C212.471,176.768 196.923,245.597 195.031,254.183C193.975,258.972 193.318,263.098 193.571,263.35C193.823,263.602 204.225,265.214 216.686,266.932L239.343,270.056L242.798,266.014C252.552,254.602 269.131,254.408 278.704,265.593C291.252,280.252 280.356,303.141 260.87,303.053C253.956,303.023 248.42,300.479 243.222,294.942L239.108,290.56L216.481,293.767C204.036,295.531 193.663,297.164 193.431,297.396C192.544,298.283 197.097,309.452 200.754,315.36C207.473,326.216 215.571,333.115 227.417,338.077C234.496,341.043 242.603,340.859 242.798,341.043C242.992,341.228 219.586,341.043 202.454,341.043L171.305,341.043L171.305,278.179L114.387,278.179L114.387,341.043L61.717,341.043L61.717,256.095ZM386.283,241.985C392.205,240.227 397.521,235.101 398.958,229.761C401.658,219.736 396.069,209.597 386.314,206.824C384.624,206.343 377.029,205.706 369.436,205.408L355.631,204.865L355.631,244.473L368.662,243.911C376.536,243.571 383.509,242.81 386.283,241.986L386.283,241.985Z" style="fill:rgb(37,117,190);"/>
    </g>
</svg>
