<?xml version="1.0" encoding="UTF-8" standalone="no"?>
<!DOCTYPE svg PUBLIC "-//W3C//DTD SVG 1.1//EN" "http://www.w3.org/Graphics/SVG/1.1/DTD/svg11.dtd">
<svg width="100%" height="100%" viewBox="0 0 1024 1024" version="1.1" xmlns="http://www.w3.org/2000/svg" xmlns:xlink="http://www.w3.org/1999/xlink" xml:space="preserve" xmlns:serif="http://www.serif.com/" style="fill-rule:evenodd;clip-rule:evenodd;stroke-linejoin:round;stroke-miterlimit:2;">
    <g transform="matrix(1,0,0,1,5.08064,30.1963)">
        <g transform="matrix(20.48,0,0,20.48,-5.08064,-30.1963)">
            <path d="M50,2C50,0.896 49.104,0 48,0L2,0C0.896,0 0,0.896 0,2L0,48C0,49.104 0.896,50 2,50L48,50C49.104,50 50,49.104 50,48L50,2Z" style="fill:rgb(70,29,124);"/>
        </g>
        <g transform="matrix(0.836355,0,0,0.849083,82.9549,72.7123)">
            <rect x="251.367" y="226.37" width="402.266" height="56.987" style="fill:white;"/>
            <g>
                <path d="M529.142,648.196C519.888,627.885 514.731,605.316 514.731,581.552C514.731,492.649 586.909,420.471 675.812,420.471C764.716,420.471 836.894,492.649 836.894,581.552C836.894,607.494 830.748,632.012 819.839,653.718L898.507,787.522C903.01,795.179 902.773,804.729 897.898,812.154C893.022,819.58 884.354,823.593 875.537,822.506L817.222,815.315L795.04,861.997C791.207,870.063 783.107,875.234 774.178,875.316C765.248,875.397 757.055,870.374 753.076,862.38L693.024,741.723C687.369,742.325 681.627,742.634 675.812,742.634C668.087,742.634 660.487,742.089 653.052,741.035L592.658,862.38C588.679,870.374 580.486,875.397 571.556,875.316C562.626,875.234 554.526,870.063 550.694,861.997L528.511,815.315L470.196,822.506C461.38,823.593 452.711,819.58 447.836,812.154C442.96,804.729 442.724,795.179 447.226,787.522L529.142,648.196ZM790.029,695.092C775.549,709.658 758.307,721.472 739.158,729.681L773.479,798.639L782.297,780.083C786.61,771.005 796.252,765.709 806.227,766.939C806.227,766.94 0.307,770.401 834.307,770.401L790.029,695.092ZM557.938,691.293L511.427,770.401L539.506,766.939C549.482,765.709 559.123,771.005 563.437,780.083L572.255,798.639L607.651,727.522C588.812,718.7 571.956,706.339 557.938,691.293ZM675.812,476.825C733.613,476.825 780.54,523.752 780.54,581.552C780.54,639.353 733.613,686.28 675.812,686.28C618.012,686.28 571.085,639.353 571.085,581.552C571.085,523.752 618.012,476.825 675.812,476.825Z" style="fill:white;"/>
                <path d="M361.694,839.728L171.169,839.728C138.575,839.728 112.112,813.265 112.112,780.671L112.112,147.348C112.112,114.753 138.575,88.291 171.169,88.291L759.709,88.291C792.303,88.291 818.765,114.753 818.765,147.348L818.765,382.613L816.251,382.613C800.007,369.556 781.895,358.731 762.384,350.605L762.384,146.825L168.494,146.825L168.494,781.194L396.108,781.194L361.694,839.728Z" style="fill:white;"/>
            </g>
            <path d="M472.204,643.713C472.864,645.254 473.542,646.787 474.236,648.312L443.435,700.7L251.367,700.7L251.367,643.713L472.204,643.713Z" style="fill:white;"/>
            <path d="M460.343,504.598C456.405,521.159 454.319,538.442 454.319,556.209C454.319,558.005 454.341,559.797 454.383,561.585L251.367,561.585L251.367,504.598L460.343,504.598Z" style="fill:white;"/>
            <path d="M562.124,365.484C537.606,380.288 516.168,399.682 499.003,422.471L251.367,422.471L251.367,365.484L562.124,365.484Z" style="fill:white;"/>
        </g>
    </g>
</svg>
